<svg id="Layer_1" data-name="Layer 1" xmlns="http://www.w3.org/2000/svg" width="100%" height="100%" viewBox="0 0 32 32">
  <title>code-playground-icon@32px</title>
  <path fill="#62d76b" d="M23.11,23.11a1.78,1.78,0,0,1-1.26-3L25.93,16l-4.08-4.08a1.78,1.78,0,1,1,2.52-2.51l5.33,5.33a1.77,1.77,0,0,1,0,2.52l-5.33,5.33A1.76,1.76,0,0,1,23.11,23.11Z"></path><path d="M8.89,23.11a1.76,1.76,0,0,1-1.26-.52L2.3,17.26a1.77,1.77,0,0,1,0-2.52L7.63,9.41a1.78,1.78,0,1,1,2.52,2.51L6.07,16l4.08,4.08a1.78,1.78,0,0,1-1.26,3Z"></path><path d="M13.34,28.44a1.65,1.65,0,0,1-.44-.05,1.77,1.77,0,0,1-1.29-2.15L16.94,4.9a1.78,1.78,0,0,1,3.45.86L15.06,27.1A1.77,1.77,0,0,1,13.34,28.44Z">
  </path>
</svg>
