<svg id="Layer_1" data-name="Layer 1" xmlns="http://www.w3.org/2000/svg" width="100%" height="100%" viewBox="0 0 32 32">
  <title>bite-size-icon-32px</title>
  <path fill="#9553f1" d="M30,13a2.63,2.63,0,0,1-1-.46,2.45,2.45,0,0,1-1.5.51,2.49,2.49,0,0,1-2.11-1.17,2.43,2.43,0,0,1-.89.17A2.5,2.5,0,0,1,22,9.5,2.35,2.35,0,0,1,22.06,9,2.5,2.5,0,0,1,20,6.5,2.45,2.45,0,0,1,20.51,5,2.45,2.45,0,0,1,20,3.5a2.54,2.54,0,0,1,.31-1.19A14.35,14.35,0,1,0,30.35,16,14.54,14.54,0,0,0,30,13Zm-6.73,1.34.5-.5a1,1,0,0,1,1.42,1.42l-.5.5a1,1,0,0,1-1.42,0A1,1,0,0,1,23.29,14.29ZM17,10a1,1,0,0,1,2,0v1a1,1,0,0,1-2,0ZM13.79,4.79a1,1,0,0,1,1.42,0l.5.5a1,1,0,0,1,0,1.42,1,1,0,0,1-1.42,0l-.5-.5A1,1,0,0,1,13.79,4.79ZM16,12.68A3.32,3.32,0,1,1,12.68,16,3.32,3.32,0,0,1,16,12.68ZM9.93,10.36a1,1,0,0,1,1.42,0l.5.5a1,1,0,0,1,0,1.42,1,1,0,0,1-1.42,0l-.5-.5A1,1,0,0,1,9.93,10.36ZM7.33,6.82l.5-.5A1,1,0,0,1,9.24,7.73l-.5.5a1,1,0,0,1-1.41,0A1,1,0,0,1,7.33,6.82ZM5,13.5a1,1,0,0,1,2,0v1a1,1,0,0,1-2,0Zm11,15A12.5,12.5,0,0,1,3.66,17.93c1.61.27,1.84,1.45,3.84,1.45S9.71,18.25,11.21,18a5.17,5.17,0,0,0,9.58,0c1.5.3,1.76,1.43,3.71,1.43s2.23-1.18,3.84-1.45A12.5,12.5,0,0,1,16,28.5Z">
  </path>
</svg>
