<svg xmlns="http://www.w3.org/2000/svg" width="147" height="47" viewBox="0 0 147 47">
    <defs>
        <linearGradient id="a" x1="61.137%" x2="26.378%" y1="4.677%" y2="71.806%">
            <stop offset="0%" stop-color="#00A1FF"/>
            <stop offset="26.01%" stop-color="#00BEFF"/>
            <stop offset="51.22%" stop-color="#00D2FF"/>
            <stop offset="76.04%" stop-color="#00DFFF"/>
            <stop offset="100%" stop-color="#00E3FF"/>
        </linearGradient>
        <linearGradient id="b" x1="107.998%" x2="-130.395%" y1="49.535%" y2="49.535%">
            <stop offset="0%" stop-color="#FFE000"/>
            <stop offset="40.87%" stop-color="#FFBD00"/>
            <stop offset="77.54%" stop-color="#FFA500"/>
            <stop offset="100%" stop-color="#FF9C00"/>
        </linearGradient>
        <linearGradient id="c" x1="86.472%" x2="-50.626%" y1="30.876%" y2="136.036%">
            <stop offset="0%" stop-color="#FF3A44"/>
            <stop offset="100%" stop-color="#C31162"/>
        </linearGradient>
        <linearGradient id="d" x1="-19.128%" x2="42.092%" y1="-11.258%" y2="35.2%">
            <stop offset="0%" stop-color="#32A071"/>
            <stop offset="6.85%" stop-color="#2DA771"/>
            <stop offset="47.62%" stop-color="#15CF74"/>
            <stop offset="80.09%" stop-color="#06E775"/>
            <stop offset="100%" stop-color="#00F076"/>
        </linearGradient>
    </defs>
    <g fill="none" fill-rule="evenodd">
        <rect width="146.016" height="46.725" fill="#3E416D" rx="23.363"/>
        <path fill="#FFF" d="M111.687 33.908h1.82V21.74h-1.82v12.17zm16.401-7.785L126 31.399h-.063l-2.165-5.276h-1.963l3.249 7.373-1.851 4.102h1.899l5.006-11.475h-2.024zm-10.328 6.403c-.596 0-1.428-.297-1.428-1.034 0-.938 1.036-1.298 1.931-1.298.8 0 1.177.172 1.663.406a2.205 2.205 0 0 1-2.166 1.926zm.22-6.67c-1.318 0-2.684.58-3.249 1.864l1.616.673c.346-.673.99-.893 1.664-.893.942 0 1.9.564 1.915 1.566v.125c-.33-.188-1.036-.47-1.9-.47-1.741 0-3.514.956-3.514 2.74 0 1.628 1.427 2.678 3.029 2.678 1.224 0 1.899-.548 2.322-1.19h.063v.939h1.758v-4.666c0-2.16-1.617-3.365-3.704-3.365zm-11.254 1.748h-2.589v-4.171h2.59c1.36 0 2.134 1.124 2.134 2.085 0 .943-.774 2.086-2.135 2.086zm-.047-5.865h-4.363v12.17h1.821v-4.611h2.542c2.018 0 4.002-1.458 4.002-3.78s-1.984-3.779-4.002-3.779zM82.886 32.528c-1.258 0-2.31-1.05-2.31-2.493 0-1.458 1.052-2.525 2.31-2.525 1.243 0 2.218 1.067 2.218 2.525 0 1.442-.975 2.493-2.218 2.493zm2.092-5.724h-.064c-.409-.486-1.194-.925-2.185-.925-2.075 0-3.977 1.819-3.977 4.156 0 2.32 1.902 4.124 3.977 4.124.99 0 1.776-.439 2.185-.941h.064v.597c0 1.583-.85 2.43-2.218 2.43-1.116 0-1.808-.8-2.09-1.474l-1.589.659c.456 1.098 1.667 2.446 3.68 2.446 2.138 0 3.946-1.255 3.946-4.312v-7.435h-1.73v.675zm2.987 7.104h1.824v-12.17h-1.824v12.17zm4.512-4.014c-.048-1.6 1.242-2.415 2.17-2.415.723 0 1.336.36 1.54.878l-3.71 1.537zm5.66-1.38c-.346-.925-1.4-2.635-3.554-2.635-2.138 0-3.914 1.677-3.914 4.14 0 2.32 1.76 4.14 4.12 4.14 1.901 0 3.002-1.16 3.458-1.835l-1.415-.94c-.472.69-1.117 1.144-2.044 1.144-.928 0-1.589-.424-2.012-1.254l5.55-2.29-.19-.47zM53.92 27.15v1.756h4.214c-.126.988-.457 1.709-.96 2.21-.613.613-1.571 1.287-3.254 1.287-2.594 0-4.622-2.086-4.622-4.673 0-2.589 2.028-4.674 4.622-4.674 1.4 0 2.421.55 3.176 1.255l1.242-1.24c-1.053-1.003-2.452-1.772-4.418-1.772-3.553 0-6.54 2.886-6.54 6.43 0 3.545 2.987 6.43 6.54 6.43 1.918 0 3.365-.628 4.497-1.803 1.163-1.16 1.524-2.791 1.524-4.11 0-.407-.03-.783-.093-1.096H53.92zm10.812 5.378c-1.258 0-2.343-1.035-2.343-2.509 0-1.49 1.085-2.51 2.343-2.51s2.342 1.02 2.342 2.51c0 1.474-1.084 2.509-2.342 2.509zm0-6.649c-2.295 0-4.167 1.74-4.167 4.14 0 2.384 1.872 4.14 4.167 4.14s4.166-1.756 4.166-4.14c0-2.4-1.87-4.14-4.166-4.14zm9.088 6.649c-1.258 0-2.342-1.035-2.342-2.509 0-1.49 1.084-2.51 2.342-2.51s2.343 1.02 2.343 2.51c0 1.474-1.085 2.509-2.343 2.509zm0-6.649c-2.295 0-4.166 1.74-4.166 4.14 0 2.384 1.871 4.14 4.166 4.14 2.296 0 4.166-1.756 4.166-4.14 0-2.4-1.87-4.14-4.166-4.14z"/>
        <g fill="#FFF">
            <path d="M85.048 11.167v3.625l.023.847-2.754-4.472h-1.082v6.22h.96v-3.853l-.024-.845 2.888 4.697h.95v-6.219zM79.386 14.277c0 .669-.213 1.226-.633 1.657-.417.429-.936.647-1.541.647a2.08 2.08 0 0 1-1.543-.647c-.418-.43-.63-.988-.63-1.657 0-.67.212-1.227.63-1.657.419-.43.937-.646 1.543-.646.605 0 1.124.216 1.541.646.42.43.633.988.633 1.657m-2.174-3.244c-.893 0-1.647.317-2.247.943-.599.623-.902 1.397-.902 2.3 0 .904.303 1.679.902 2.302.599.626 1.354.942 2.247.942.891 0 1.648-.316 2.247-.942.6-.624.902-1.399.902-2.301 0-.898-.304-1.67-.906-2.298-.603-.628-1.358-.946-2.243-.946M67.488 12.107h1.658v5.279h.96v-5.279h1.658v-.94h-4.276zM65.763 17.386h.96v-6.22h-.96zM58.732 12.107h1.658v5.279h.96v-5.279h1.659v-.94h-4.277zM54.47 17.386h3.665v-.94h-2.703v-1.707h2.438v-.924h-2.438v-1.707h2.703v-.941H54.47zM53.516 13.966h-3.058v.924h2.145c-.055.442-.209.794-.458 1.048-.422.426-.956.642-1.588.642a2.152 2.152 0 0 1-1.552-.64c-.435-.424-.654-.984-.654-1.663 0-.68.22-1.24.654-1.664.434-.424.956-.64 1.552-.64.666 0 1.172.222 1.55.678l.07.084.66-.672-.057-.07a2.561 2.561 0 0 0-.966-.7 3.14 3.14 0 0 0-1.257-.26c-.88 0-1.638.313-2.254.932-.616.619-.929 1.396-.929 2.312 0 .915.313 1.692.93 2.311a3.075 3.075 0 0 0 2.253.932c.92 0 1.677-.31 2.25-.92.51-.516.768-1.216.768-2.08a2.68 2.68 0 0 0-.044-.47l-.015-.084z"/>
        </g>
        <path fill="url(#a)" d="M.452.387C.168.687 0 1.151 0 1.755v21.528c0 .603.168 1.068.452 1.367l.071.07 12.091-12.059v-.285L.524.316.451.387z" transform="translate(16.57 11.032)"/>
        <path fill="url(#b)" d="M12.614 12.376v.285l4.03 4.022.092-.052 4.774-2.707c1.365-.772 1.365-2.037 0-2.81l-4.774-2.706-.091-.052-4.03 4.02z" transform="translate(16.57 11.032)"/>
        <path fill="url(#c)" d="M.452 24.65c.449.475 1.191.534 2.028.06l14.256-8.079-4.122-4.112L.452 24.65z" transform="translate(16.57 11.032)"/>
        <path fill="url(#d)" d="M.452.387L12.614 12.52l4.122-4.112L2.48.327C2.087.105 1.716 0 1.386 0a1.25 1.25 0 0 0-.934.387" transform="translate(16.57 11.032)"/>
    </g>
</svg>
