<svg xmlns="http://www.w3.org/2000/svg" width="25" height="24" viewBox="0 0 25 24">
    <path fill="#FFD011" fill-rule="evenodd" d="M3.5 21h18V3h-18v18zm9.796-3.961c0 1.752-1.027 2.55-2.525 2.55-1.354 0-2.139-.701-2.539-1.547l1.378-.833c.266.471.508.869 1.087.869.557 0 .907-.217.907-1.062v-5.752h1.692v5.775zm3.999 2.55c-1.57 0-2.585-.749-3.081-1.728l1.378-.798c.362.592.834 1.028 1.667 1.028.701 0 1.148-.351 1.148-.834 0-.58-.46-.785-1.232-1.124l-.423-.181c-1.221-.519-2.03-1.172-2.03-2.55 0-1.268.966-2.235 2.476-2.235 1.076 0 1.849.375 2.406 1.354l-1.318.845c-.29-.519-.604-.724-1.088-.724-.495 0-.809.313-.809.724 0 .508.314.713 1.039 1.028l.423.18c1.438.616 2.248 1.245 2.248 2.658 0 1.523-1.197 2.357-2.804 2.357z"/>
</svg>
