<svg viewBox="0 0 150 48" version="1.1"
  xmlns="http://www.w3.org/2000/svg" xmlns:xlink="http://www.w3.org/1999/xlink">
  <title>download on the app store</title>
  <desc>Created with Sketch.</desc>
  <g id="Page-1" stroke="none" stroke-width="1" fill="none" fill-rule="evenodd">
      <g id="new-landing-page-v01" transform="translate(-200.000000, -493.000000)">
          <g id="download-on-the-app-store" transform="translate(200.000000, 493.000000)">
              <rect id="bg" fill="#3E416D" x="0" y="0" width="150" height="48" rx="24"></rect>
              <g id="Group-2" transform="translate(16.000000, 10.000000)" fill="#FFFFFF">
                  <path
                      d="M17.1162345,13.7228 C17.1405251,11.7598883 18.1699838,9.94734701 19.8414083,8.92020171 C18.7818756,7.40724444 17.0711234,6.48188832 15.225038,6.42405356 C13.2829468,6.22047521 11.3998471,7.58653219 10.409716,7.58653219 C9.40107785,7.58653219 7.87771033,6.44487407 6.23635991,6.47841823 C4.07681005,6.54781994 2.11274167,7.74615613 1.06246247,9.63388262 C-1.17458596,13.506498 0.493368452,19.1985949 2.63672458,22.328612 C3.70898099,23.8635464 4.96168184,25.5754553 6.60187557,25.5141504 C8.20621176,25.4482188 8.80537985,24.4916319 10.7416875,24.4916319 C12.6606448,24.4916319 13.2227987,25.5141504 14.8953798,25.4759795 C16.6165422,25.4482188 17.7015223,23.9352615 18.7367645,22.3876034 C19.5059667,21.2956832 20.0993514,20.0892501 20.4926277,18.811102 C18.4475907,17.945894 17.1185479,15.942498 17.1162345,13.7228"
                      id="Fill-1"></path>
                  <path
                      d="M13.9562591,4.36525185 C14.8954955,3.23863077 15.3570169,1.78929174 15.2459742,0.32722906 C13.8116722,0.478756125 12.4860995,1.16351966 11.5352961,2.24734302 C10.5960596,3.31612934 10.1206579,4.71573048 10.2120368,6.13499544 C11.6660026,6.15003248 13.04594,5.49765641 13.9562591,4.36525185"
                      id="Fill-3"></path>
                  <path
                      d="M32.4888289,19.8417174 L36.8287491,19.8417174 L34.688863,13.5411989 L34.6298716,13.5411989 L32.4888289,19.8417174 Z M37.3966864,21.6334382 L31.9220482,21.6334382 L30.6068858,25.5153071 L28.287712,25.5153071 L33.4743331,11.1514667 L35.8837291,11.1514667 L41.0691935,25.5153071 L38.7106921,25.5153071 L37.3966864,21.6334382 Z"
                      id="Fill-5"></path>
                  <path
                      d="M50.059491,20.2799892 C50.059491,18.159767 48.9641006,16.7659493 47.2915194,16.7659493 C45.6490123,16.7659493 44.5443685,18.1886843 44.5443685,20.2799892 C44.5443685,22.3898011 45.6490123,23.8032826 47.2915194,23.8032826 C48.9641006,23.8032826 50.059491,22.4198752 50.059491,20.2799892 M52.2687787,20.2799892 C52.2687787,23.5337726 50.5267958,25.6250775 47.8987844,25.6250775 C46.5396676,25.6967926 45.2603628,24.9842684 44.6033599,23.7928724 L44.553622,23.7928724 L44.553622,28.9794934 L42.4044824,28.9794934 L42.4044824,15.0436302 L44.485377,15.0436302 L44.485377,16.7856131 L44.5247046,16.7856131 C45.2106249,15.6011573 46.4922431,14.8897897 47.8594568,14.9337442 C50.5175422,14.9337442 52.2687787,17.0343026 52.2687787,20.2799892"
                      id="Fill-7"></path>
                  <path
                      d="M61.5863052,20.2799892 C61.5863052,18.159767 60.4909149,16.7659493 58.8183337,16.7659493 C57.1758266,16.7659493 56.0711827,18.1886843 56.0711827,20.2799892 C56.0711827,22.3898011 57.1758266,23.8032826 58.8183337,23.8032826 C60.4909149,23.8032826 61.5863052,22.4198752 61.5863052,20.2799892 M63.795593,20.2799892 C63.795593,23.5337726 62.05361,25.6250775 59.4255987,25.6250775 C58.0664818,25.6967926 56.7860203,24.9842684 56.1301742,23.7928724 L56.0804363,23.7928724 L56.0804363,28.9794934 L53.93014,28.9794934 L53.93014,15.0436302 L56.0110345,15.0436302 L56.0110345,16.7856131 L56.0503622,16.7856131 C56.7362824,15.6011573 58.0179006,14.8897897 59.3851143,14.9337442 C62.0443565,14.9337442 63.795593,17.0343026 63.795593,20.2799892"
                      id="Fill-9"></path>
                  <path
                      d="M71.4137029,21.5134889 C71.5733269,22.9373806 72.9567343,23.873147 74.8479308,23.873147 C76.6593155,23.873147 77.9629109,22.9373806 77.9629109,21.653449 C77.9629109,20.5383949 77.1763582,19.8709818 75.3152357,19.4140872 L73.4541132,18.9652895 C70.8156915,18.3279504 69.5919081,17.0949134 69.5919081,15.0926741 C69.5919081,12.615033 71.7514579,10.9123778 74.8178568,10.9123778 C77.8518682,10.9123778 79.9339194,12.615033 80.0044779,15.0926741 L77.8345177,15.0926741 C77.7038112,13.6595288 76.5193553,12.7943208 74.786626,12.7943208 C73.05621,12.7943208 71.8717542,13.669939 71.8717542,14.9434604 C71.8717542,15.9590387 72.6282328,16.5570501 74.4789451,17.0139447 L76.0613041,17.4025943 C79.0085633,18.1000815 80.2335035,19.2833806 80.2335035,21.3850957 C80.2335035,24.0720986 78.0913041,25.75509 74.6871502,25.75509 C71.5016118,25.75509 69.3513155,24.1114262 69.2136687,21.5134889 L71.4137029,21.5134889 Z"
                      id="Fill-11"></path>
                  <path
                      d="M84.8727764,12.5649481 L84.8727764,15.0437459 L86.8646055,15.0437459 L86.8646055,16.7452444 L84.8727764,16.7452444 L84.8727764,22.51831 C84.8727764,23.4159054 85.2718363,23.8334724 86.1474545,23.8334724 C86.3834203,23.8288456 86.6193861,23.8138085 86.8541952,23.7837345 L86.8541952,25.4759795 C86.4597622,25.550008 86.0595457,25.5835521 85.6604858,25.5754553 C83.5402636,25.5754553 82.7132266,24.779649 82.7132266,22.7484923 L82.7132266,16.7452444 L81.1898591,16.7452444 L81.1898591,15.0437459 L82.7120699,15.0437459 L82.7120699,12.5649481 L84.8727764,12.5649481 Z"
                      id="Fill-13"></path>
                  <path
                      d="M95.7619046,20.2799892 C95.7619046,18.0198068 94.7255058,16.6861373 92.9846796,16.6861373 C91.2426967,16.6861373 90.2074545,18.0302171 90.2074545,20.2799892 C90.2074545,22.5494251 91.2426967,23.8726843 92.9846796,23.8726843 C94.7255058,23.8726843 95.7619046,22.5494251 95.7619046,20.2799892 M88.0178306,20.2799892 C88.0178306,16.9845647 89.9576083,14.9140803 92.9846796,14.9140803 C96.0210043,14.9140803 97.9526853,16.9845647 97.9526853,20.2799892 C97.9526853,23.5835105 96.0302579,25.645898 92.9846796,25.645898 C89.9391012,25.645898 88.0178306,23.5835105 88.0178306,20.2799892"
                      id="Fill-15"></path>
                  <path
                      d="M99.7245109,15.0432832 L101.774175,15.0432832 L101.774175,16.8257504 L101.823913,16.8257504 C102.110773,15.6783088 103.161052,14.888286 104.343195,14.9333972 C104.590727,14.9322405 104.83826,14.9600011 105.080009,15.0143658 L105.080009,17.024702 C104.766545,16.9286963 104.440357,16.8858986 104.114169,16.8951521 C102.918146,16.8465709 101.910665,17.7753972 101.862084,18.9714199 C101.857457,19.0824627 101.860927,19.1935054 101.873651,19.3045481 L101.873651,25.5160011 L99.7245109,25.5160011 L99.7245109,15.0432832 Z"
                      id="Fill-17"></path>
                  <path
                      d="M107.724215,19.3142644 L112.959417,19.3142644 C113.036915,17.9262302 111.973913,16.7359909 110.584722,16.659649 C110.519947,16.6561789 110.455172,16.6550222 110.391554,16.6561789 C108.926021,16.6469254 107.732311,17.8279111 107.724215,19.2911305 L107.724215,19.3142644 Z M114.990574,22.4396547 C114.7014,24.3412615 112.850688,25.6460137 110.481776,25.6460137 C107.435041,25.6460137 105.543844,23.6044467 105.543844,20.3298427 C105.543844,17.0448285 107.445451,14.914196 110.391554,14.914196 C113.289075,14.914196 115.11087,16.9048684 115.11087,20.0799966 L115.11087,20.8168114 L107.713804,20.8168114 L107.713804,20.9463613 C107.580784,22.4465949 108.688898,23.7721675 110.190289,23.9040308 C110.302488,23.914441 110.417001,23.9167544 110.531514,23.9132843 C111.573696,24.0116034 112.558044,23.4112786 112.950163,22.4396547 L114.990574,22.4396547 Z"
                      id="Fill-19"></path>
                  <path
                      d="M30.7984345,6.26581766 L32.0997166,6.26581766 C33.2957394,6.33753276 34.3240414,5.42490028 34.3945998,4.22887749 C34.4038534,4.08082051 34.3980699,3.93045014 34.3760927,3.78354986 C34.5391867,2.59331054 33.7063662,1.49560684 32.5161269,1.33251282 C32.3784801,1.312849 32.23852,1.30706553 32.0997166,1.31516239 L30.7984345,1.31516239 L30.7984345,6.26581766 Z M32.2200129,0.340068376 C33.9018477,0.218615385 35.3627536,1.48519658 35.4830499,3.16703134 C35.498087,3.3682963 35.4923035,3.56956125 35.4668562,3.76966952 C35.4668562,5.97433048 34.2754602,7.24206838 32.2200129,7.24206838 L29.7261781,7.24206838 L29.7261781,0.340068376 L32.2200129,0.340068376 Z"
                      id="Fill-21"></path>
                  <path
                      d="M40.533181,4.6352245 C40.533181,3.50629003 40.0265485,2.84581709 39.1358932,2.84581709 C38.2429246,2.84581709 37.7397622,3.50629003 37.7397622,4.6352245 C37.7397622,5.77341254 38.2429246,6.42810199 39.1358932,6.42810199 C40.0265485,6.42810199 40.533181,5.76878575 40.533181,4.6352245 M36.677916,4.6352245 C36.5483662,3.27842108 37.543124,2.07430142 38.8987707,1.94359487 C40.2555742,1.81404501 41.4608505,2.80880285 41.5904004,4.16560627 C41.6054374,4.32176011 41.6054374,4.47907066 41.5904004,4.6352245 C41.7222636,5.99202792 40.7298192,7.19846097 39.3741724,7.33148091 C38.017369,7.46218746 36.8097793,6.46974302 36.677916,5.1140963 C36.662879,4.95447236 36.662879,4.79484843 36.677916,4.6352245"
                      id="Fill-23"></path>
                  <polygon id="Fill-25"
                      points="48.1205229 7.24183704 47.0540499 7.24183704 45.9771667 3.4062359 45.8961981 3.4062359 44.8239417 7.24183704 43.767879 7.24183704 42.3324203 2.03323875 43.3746026 2.03323875 44.3080556 6.0076433 44.3855542 6.0076433 45.4554972 2.03323875 46.4421582 2.03323875 47.5132579 6.0076433 47.5942266 6.0076433 48.5230528 2.03323875 49.5501981 2.03323875">
                  </polygon>
                  <path
                      d="M50.7581348,2.03323875 L51.7471092,2.03323875 L51.7471092,2.86027578 L51.8246078,2.86027578 C52.0918043,2.25069744 52.715263,1.87939829 53.3792061,1.93260627 C54.3115024,1.86320456 55.1246591,2.56184843 55.1952175,3.49530142 C55.204471,3.6202245 55.1998442,3.74514758 55.1813371,3.87007066 L55.1813371,7.24183704 L54.1541918,7.24183704 L54.1541918,4.12801368 C54.1541918,3.29056638 53.7898328,2.87531282 53.0298841,2.87531282 C52.3705679,2.84408205 51.8118841,3.35418462 51.7806534,4.01234416 C51.7771833,4.073649 51.7794967,4.13379715 51.7864368,4.19510199 L51.7864368,7.24183704 L50.7581348,7.24183704 L50.7581348,2.03323875 Z"
                      id="Fill-27"></path>
                  <polygon id="Fill-29"
                      points="56.8197958 7.24206838 57.8480978 7.24206838 57.8480978 1.82076576e-14 56.8197958 1.82076576e-14">
                  </polygon>
                  <path
                      d="M63.1316499,4.6352245 C63.1316499,3.50629003 62.6250175,2.84581709 61.7343622,2.84581709 C60.8413935,2.84581709 60.3382311,3.50629003 60.3382311,4.6352245 C60.3382311,5.77341254 60.8413935,6.42810199 61.7343622,6.42810199 C62.6250175,6.42810199 63.1316499,5.76878575 63.1316499,4.6352245 M59.276385,4.6352245 C59.1468351,3.27842108 60.141593,2.07314473 61.4983964,1.94359487 C62.8551998,1.81404501 64.0604761,2.80880285 64.190026,4.16560627 C64.205063,4.32176011 64.205063,4.47907066 64.190026,4.6352245 C64.3207326,5.99202792 63.3282881,7.19846097 61.9714847,7.33148091 C60.6146813,7.46218746 59.4082482,6.46974302 59.276385,5.1129396 C59.2601912,4.95447236 59.2601912,4.79369174 59.276385,4.6352245"
                      id="Fill-31"></path>
                  <path
                      d="M68.6202841,5.32380513 L68.6202841,4.88888775 L67.3479194,4.96985641 C66.6307685,5.01728091 66.3057371,5.26134359 66.3057371,5.72055157 C66.3057371,6.1901698 66.7128938,6.46199316 67.2715776,6.46199316 C67.9459308,6.53023818 68.548569,6.03979943 68.6156573,5.36428946 C68.6179707,5.35040912 68.6191274,5.33768547 68.6202841,5.32380513 M65.2716516,5.76913276 C65.2716516,4.83105299 65.9702955,4.29087635 67.209116,4.21453447 L68.6202841,4.13240912 L68.6202841,3.6836114 C68.6202841,3.1330245 68.2570818,2.8218735 67.5538112,2.8218735 C66.9800904,2.8218735 66.5821873,3.03354872 66.4688311,3.40137778 L65.4729166,3.40137778 C65.5781759,2.50609573 66.4202499,1.93237493 67.6012357,1.93237493 C68.9071445,1.93237493 69.6439593,2.58243761 69.6439593,3.6836114 L69.6439593,7.2416057 L68.6538283,7.2416057 L68.6538283,6.50941766 L68.5728596,6.50941766 C68.2362613,7.04381083 67.6382499,7.35727521 67.0078511,7.32720114 C66.1426431,7.41742336 65.3699707,6.79049459 65.2797485,5.92528661 C65.273965,5.87323533 65.2716516,5.82118405 65.2716516,5.76913276"
                      id="Fill-32"></path>
                  <path
                      d="M72.0564784,4.6352245 C72.0564784,5.73986838 72.5769912,6.40496809 73.4479827,6.40496809 C74.3143474,6.40496809 74.8498972,5.73061481 74.8498972,4.63985128 C74.8498972,3.55371453 74.3085639,2.87010769 73.4479827,2.87010769 C72.5827747,2.87010769 72.0564784,3.53983419 72.0564784,4.6352245 M70.9946323,4.6352245 C70.9946323,2.98924729 71.8401764,1.94706496 73.1564955,1.94706496 C73.8204385,1.91583419 74.4427405,2.2720963 74.7538915,2.86085413 L74.8302334,2.86085413 L74.8302334,0.000347008547 L75.8585354,0.000347008547 L75.8585354,7.24125869 L74.8741878,7.24125869 L74.8741878,6.41884843 L74.7920625,6.41884843 C74.4577776,7.00182279 73.8273787,7.35230142 73.1564955,7.32801083 C71.8320796,7.32801083 70.9946323,6.28467179 70.9946323,4.6352245"
                      id="Fill-33"></path>
                  <path
                      d="M83.9668528,4.6352245 C83.9668528,3.50629003 83.4602203,2.84581709 82.569565,2.84581709 C81.6765964,2.84581709 81.173434,3.50629003 81.173434,4.6352245 C81.173434,5.77341254 81.6765964,6.42810199 82.569565,6.42810199 C83.4602203,6.42810199 83.9668528,5.76878575 83.9668528,4.6352245 M80.1115878,4.6352245 C79.982038,3.27842108 80.9756391,2.07430142 82.3324425,1.94359487 C83.6892459,1.81404501 84.8945223,2.80880285 85.0240722,4.16560627 C85.0391092,4.32176011 85.0391092,4.47907066 85.0240722,4.6352245 C85.1547787,5.99202792 84.163491,7.19846097 82.8066875,7.33148091 C81.4498841,7.46218746 80.2422944,6.46974302 80.1115878,5.1140963 C80.0953941,4.95447236 80.0953941,4.79484843 80.1115878,4.6352245"
                      id="Fill-34"></path>
                  <path
                      d="M86.4033155,2.03323875 L87.3922898,2.03323875 L87.3922898,2.86027578 L87.4697884,2.86027578 C87.7358283,2.25069744 88.3604437,1.87939829 89.0243867,1.93260627 C89.9555263,1.86320456 90.768683,2.56184843 90.8392414,3.49530142 C90.8496516,3.6202245 90.8450249,3.74514758 90.8265177,3.87007066 L90.8265177,7.24183704 L89.7993724,7.24183704 L89.7993724,4.12801368 C89.7993724,3.29056638 89.4350135,2.87531282 88.6750647,2.87531282 C88.0157485,2.84408205 87.4559081,3.35418462 87.425834,4.01234416 C87.4223639,4.073649 87.4246773,4.13379715 87.4316175,4.19510199 L87.4316175,7.24183704 L86.4033155,7.24183704 L86.4033155,2.03323875 Z"
                      id="Fill-35"></path>
                  <path
                      d="M96.6350938,0.736467806 L96.6350938,2.05741368 L97.7640283,2.05741368 L97.7640283,2.92262165 L96.6350938,2.92262165 L96.6350938,5.60152764 C96.6350938,6.14633105 96.8594927,6.38576695 97.3719086,6.38576695 C97.5026152,6.38461026 97.632165,6.37651339 97.7640283,6.36147635 L97.7640283,7.21858746 C97.5778004,7.25097493 97.3915724,7.26832536 97.2041878,7.27063875 C96.061373,7.27063875 95.6056351,6.86810883 95.6056351,5.86409744 L95.6056351,2.92262165 L94.7797548,2.92262165 L94.7797548,2.05741368 L95.6056351,2.05741368 L95.6056351,0.736467806 L96.6350938,0.736467806 Z"
                      id="Fill-36"></path>
                  <path
                      d="M99.1676779,1.82076576e-14 L100.186726,1.82076576e-14 L100.186726,2.86976068 L100.267695,2.86976068 C100.546458,2.25555556 101.182641,1.88194302 101.854681,1.93746439 C102.802014,1.88541311 103.610544,2.61066097 103.662595,3.55683761 C103.668379,3.66441026 103.663752,3.77198291 103.648715,3.87955556 L103.648715,7.24206838 L102.620413,7.24206838 L102.620413,4.13287179 C102.620413,3.30120798 102.23292,2.87901425 101.506515,2.87901425 C100.836789,2.82464957 100.250345,3.32318519 100.194823,3.99291168 C100.18904,4.0611567 100.18904,4.1305584 100.19598,4.19996011 L100.19598,7.24206838 L99.1676779,7.24206838 L99.1676779,1.82076576e-14 Z"
                      id="Fill-37"></path>
                  <path
                      d="M106.026533,4.15693105 L108.656858,4.15693105 C108.708909,3.46407066 108.189553,2.86143248 107.496693,2.81053789 C107.456208,2.80706781 107.415724,2.80706781 107.37524,2.80706781 C106.639582,2.79897094 106.036943,3.38657208 106.02769,4.12338689 C106.026533,4.13379715 106.026533,4.1453641 106.02769,4.15693105 L106.026533,4.15693105 Z M109.643519,5.83529573 C109.354345,6.81848661 108.404698,7.45235556 107.386807,7.34246952 C106.079741,7.37717037 104.992448,6.34655499 104.958903,5.03948946 C104.955433,4.9110963 104.962374,4.78154644 104.980881,4.65430997 C104.803906,3.33914758 105.726949,2.13040114 107.042111,1.95458348 C107.155468,1.93954644 107.267667,1.93144957 107.38218,1.93260627 C108.831519,1.93260627 109.70598,2.92273732 109.70598,4.55830427 L109.70598,4.91687977 L106.02769,4.91687977 L106.02769,4.97471453 C105.962915,5.73234986 106.526225,6.39860627 107.283861,6.4622245 C107.326658,6.46569459 107.370613,6.46800798 107.414567,6.46685128 C107.91773,6.52699943 108.407012,6.27715328 108.653388,5.83529573 L109.643519,5.83529573 Z"
                      id="Fill-38"></path>
              </g>
          </g>
      </g>
  </g>
</svg>
