<svg xmlns="http://www.w3.org/2000/svg" xmlns:xlink="http://www.w3.org/1999/xlink" width="183"
  height="444" viewBox="0 0 183 444">
  <defs>
      <path id="a" d="M.535.102h169.389v123.37H.535z"></path>
  </defs>
  <g fill="none" fill-rule="evenodd">
      <path fill="#D37947"
          d="M17.514 378.497s15.376-54.97 15.694-65.277l-2.865-53.936L9.462 247.2c-10.854 44.965-2.371 78.177-4.248 88.555-.485 2.684-3.332 10.176-4.55 18.229-1.216 8.05 0 28.892 1.873 46.228 1.747 16.183 1.31 12.006-.415 19.39-3.296 14.115-2.32 17.213 0 22.967 7.587 18.816 20.593 33.635 25.914 31.065 2.858-1.379-1.083-7.606-4.729-16.396">
      </path>
      <path fill="#BC6633" d="M20.046 458.015c-3.903-9.28-12.929-21.544-1.97-25.41l1.97 25.41z">
      </path>
      <path fill="#4D4D87"
          d="M131.6 563.898s3.248-63.817 10.866-90.702c7.619-26.885 11.885-62.017 7.619-76.986l-134.69 1.526s.913 72.711 12.494 135.339l103.71 30.823z">
      </path>
      <path fill="#3E416D"
          d="M15.394 397.736s.047 3.702.252 10.139c17.946 11.786 81.442 28.623 136.028-.103-.2-4.539-.712-8.483-1.589-11.562l-134.69 1.526zM83.043 544.201c-3.762-19.152-9.315-58.465-12.469-93.137-1.11-12.2-4.108-7.16-3.99.149.59 36.894 4.285 83.418 4.285 83.418l12.174 9.57z">
      </path>
      <path fill="#BC6633"
          d="M20.036 266.168l10.548-2.35-.241-4.533-20.881-12.086a105.08 105.08 0 0 0-2.051 9.988c2.106 2.448 6.1 6.18 12.625 8.981">
      </path>
      <path fill="#FFBE09"
          d="M42.303 209.055s-10.56 10.978-17.025 14.704C14.326 230.073 5.52 250.174 5.52 250.174s6.884 7.795 19.053 11.455">
      </path>
      <path fill="#FFD011"
          d="M150.045 388.84c-2.763-12.538-8.385-40.35-9.145-62.252-.33-9.518 6.68-80.2 6.68-80.2L32.115 236.255s-15.089 22.69-15.089 34.156c0 11.468 14.932 44.335 13.317 55.085-3.674 24.443-13.981 54.271-18.313 66.146-1.212 3.324-1.563 5.637 3.246 8.727 10.203 6.56 35.616 18.7 70.472 15.876 32.487-2.634 51.79-11.774 60.412-17.008 5.507-3.341 4.805-6.218 3.884-10.397">
      </path>
      <path fill="#FFAB00"
          d="M61.363 203.98c17.65-4.17 51.693 1.223 60.2 4.765l-2.57 14.685-58.623-5.487.993-13.963z">
      </path>
      <path fill="#BC6633"
          d="M114.938 217.71c-7.461-14.552-7.048-34.064-7.048-34.064l-35.705 2.617s.01 16.204-8.498 28.808l8.851 26.957 27.866 4.359 14.534-28.678z">
      </path>
      <path fill="#FFD011"
          d="M44.896 228.135s-18.51-11.19-13.78-14.708c3.83-2.85 24.62-8.325 32.57-9.92 2.15-.432 2.915.67 3.41 2.815 1.632 7.074 2.975 28.728 12.58 35.925 1.614 1.21 3.573 2.556 7.043.953 6.698-3.095 22.835-17.516 29.439-33.43.368-.888 1.353-2.714 4.11-1.59 7.788 3.174 29.908 11.724 33.97 16.412 5.035 5.812 14.037 26.46 14.037 26.46l-18.47 76.396-109.489-2.232 4.58-97.08z">
      </path>
      <path fill="#FFBE09"
          d="M123.369 272.212c0-19.035 17.905-48.072 28.755-48.447 16.857-.583 29.973 48.318 16.604 71.044l-45.36-22.597z">
      </path>
      <path fill="#FFAB00"
          d="M123.369 272.212c-1.162 3.367 1.995 14.781 21.586 23.423 4.843 2.136 21.054 4.376 23.773-.826 2.131-4.079-8.66-19.764-26.485-25.786-11.707-3.954-17.767-.016-18.874 3.19">
      </path>
      <path fill="#994E21"
          d="M108.58 194.924c-.789-6.541-.69-11.278-.69-11.278l-35.705 2.616s0 3.951-1.02 9.466c5.571 1.209 24.477 3.952 37.416-.804">
      </path>
      <g transform="translate(12.35 .023)">
          <mask id="b" fill="#fff">
              <use xlink:href="#a"></use>
          </mask>
          <path fill="#2F3152"
              d="M27.183 123.472s-33.59-7.42-17.112-44.814c-16.935-3.9-10.158-39.69 11.214-29.137-9.384-17.894 5.95-46.802 33.411-36.937 0 0 9.155-20.189 27.55-5.048 10.668-13.305 40.648-9.176 39.961 15.832 13.502-7.572 46 5.964 30.438 35.788 12.357-2.065 29.501 28.543 4.327 43.685l-129.789 20.63z"
              mask="url(#b)"></path>
      </g>
      <path fill="#D37947"
          d="M43.704 84.416c6.865 18.125-6.104 37.184-6.866 52.078-.916 17.895 9.739 44.24 20.723 50.205 10.985 5.965 41.877 8.72 59.474-5.686 34.268-28.052 35.372-61.726 35.372-61.726l5.721-31.66-75.52-30.742-38.904 27.53z">
      </path>
      <path fill="#994E21"
          d="M87.567 108.658c4.5-.383 6.692 30.3 3.4 37.73-1.597 3.604-7.978 4.942-11.486 5.095-3.51.154-9.37-1.873-8.926-6.959.382-4.359 5.187-8.106 7.63-14.451 3.193-8.303 5.796-21.11 9.382-21.415">
      </path>
      <path fill="#2F3152"
          d="M111.882 112.559c0 3.428-1.973 6.208-4.406 6.208-2.432 0-4.405-2.78-4.405-6.208 0-3.43 1.973-6.21 4.405-6.21 2.433 0 4.406 2.78 4.406 6.21M72.679 115.233c0 2.979-1.736 5.394-3.878 5.394-2.142 0-3.878-2.415-3.878-5.394 0-2.978 1.736-5.394 3.878-5.394 2.142 0 3.878 2.416 3.878 5.394M76.25 93.708c-.142 1.035-.06 1.976-1.613 2.217-8.658 1.338-17.66 6.195-20.761 8.587-.939.723-1.533.996-2.18.303l-1.495-1.597c-.368-.394-.649-1.04 0-1.972 4.106-5.894 13.412-12.776 22.21-14.064 1.889-.277 2.482.222 2.904 1.252.423 1.03 1.214 3.248.935 5.274">
      </path>
      <path fill="#FFF"
          d="M67.285 165.913c4.184 4.6 14.665 13.955 27.338 9.238 11.105-4.133 14.374-14.742 12.953-20.724-.38-1.599-2.483-2.935-4.835-1.063-4.823 3.841-16.05 10.736-34.778 10.308-.862-.02-1.943.85-.678 2.241">
      </path>
      <path fill="#BC6633"
          d="M152.407 119.287l5.722-31.66-44.875-18.266-6.311 9.932s4.047 7.82 14.622 9.68c0 0 .578 21.39 21.753 27.198 0 0-3.653 45.671-30.837 68.017a37.798 37.798 0 0 0 4.553-3.175c34.269-28.052 35.373-61.726 35.373-61.726">
      </path>
      <path fill="#2F3152"
          d="M43.704 84.416s9.73 5.839 22.198 1.606c9.46-3.212 11.748-11.165 11.748-11.165s12.51 14.988 29.292 4.435c0 0 3.357 8.565 19.834 4.436 0 0-2.958 23.295 19.88 26.866l19.635-17.869v-7.774l-81.47-36.095-46.686 28.907 5.569 6.653z">
      </path>
      <path fill="#2F3152"
          d="M100.417 95.313c.063 1.093.393 1.963 2.556 2.044 5.61.212 16.022 2.602 22.052 8.661.571.574 1.484 1.398 2.13.807.448-.412 1.28-1.218 1.772-1.685.492-.467.931-1.364 0-2.64-4.497-6.155-15.71-13.037-23.11-14.278-1.912-.32-2.808-.94-3.604.54-.796 1.479-1.95 3.855-1.796 6.551">
      </path>
      <path fill="#BC6633"
          d="M145.733 120.545s1.78 12.107 12.398 12.107c10.348 0 19.805-28.25 6.763-33.575-13.043-5.327-19.644 6.296-21.576 15.98l2.415 5.488z">
      </path>
      <path fill="#994E21"
          d="M150.093 115.355c-.309 3.54 1.716 6.762 3.719 7.932 2.382 1.393 3.47.677 4.316-.607.745-1.13.106-1.079-1.487-1.72-1.593-.64-3.765-2.055-3.477-4.64.476-4.299 4.837-5.056 7.572-6.147 1.688-.672 1.774-1.864 1.426-2.875-.393-1.145-1.11-2.158-2.488-1.538-1.969.887-9.052 3.535-9.58 9.595">
      </path>
      <path fill="#FFD011"
          d="M156.698 127.128c3.828-.142 5.793 2.753 5.897 5.528.104 2.807-2.455 5.38-5.835 5.508-3.38.126-5.418-2.027-5.535-5.183-.118-3.156 2.475-5.74 5.473-5.853">
      </path>
      <path fill="#4D4D87"
          d="M66.916 201.713s-3.552-16.9-4.069-21.303c-.516-4.403-2.067-8.547-8.784-7.51-6.717 1.035-21.074 3.571-28.418 7.253-3.616 1.812-3.875 4.401-2.841 8.545 1.033 4.143 4.004 14.18 4.004 14.18l4.52 20.007 25.318 12.43 12.918-6.991 3.1-17.352-5.748-9.26z">
      </path>
      <path fill="#3E416D"
          d="M66.916 201.713s-3.552-16.9-4.069-21.303c-.516-4.403-2.067-8.547-8.784-7.51-6.717 1.035-21.074 3.571-28.418 7.253-2.519 1.261-3.406 2.903-3.364 5.181 1.605-2.113 4.666-3.229 7.31-3.786 2.643-.558 20.87-4.764 23.513-5.102 2.644-.339 5.426-.06 6.262 2.591.835 2.65 8.548 41.884 8.548 41.884h2.973l1.777-9.949-5.748-9.26z">
      </path>
      <path fill="#D37947"
          d="M142.242 269.023c-7.049-2.38-12.037-1.893-15.143-.434-1.265 5.359-4.814 21.737-4.856 37.14-8.494-10.795-37.248-41.027-39.633-46.909-2.518-6.216-6.588-18.259-6.588-25.446 0-7.188 3.101-21.172.388-25.834-2.713-4.663-9.494-5.828-9.494-5.828s4.843 21.173-2.907 26.417c-7.75 5.245-33.132-7.575-37.201-25.252 0 0-4.78-1.617-7.234 1.36-2.454 2.979 1.034 8.289 1.034 8.289s-3.076 7.426.913 12.54c0 0-.301 5.436 1.67 8.556 1.762 2.79 6.26 5.346 6.26 5.346s-.023 2.326 1.392 5.416c2.713 5.93 23.479 14.047 33.748 29.003 7.14 10.4 26.738 67.402 32.164 74.978 5.425 7.575 24.219 17.287 31.776 16.121 6.086-.938 33.634-48.295 39.199-74.937l-.023-.227c-3.25-6.42-12.492-15.917-25.465-20.3">
      </path>
      <path fill="#BC6633"
          d="M123.493 307.38c6.394 8.934 7.363 30.107 7.363 30.107-.066 2.514 1.233 2.7 2.16-1.948.918-4.604 4.189-22.788-10.33-39.664-.27 3.253-.435 6.575-.444 9.855.48.61.909 1.171 1.251 1.65">
      </path>
      <path fill="#BC6633"
          d="M142.242 269.023c-7.049-2.38-12.037-1.893-15.143-.434-1.16 4.915-4.241 19.109-4.776 33.315l5.31.828c-2.873-5.412-.64-21.87 5.754-26.335 5.194-3.626 20.684-2.288 34.343 13.152l-.023-.227c-3.25-6.42-12.492-15.917-25.465-20.3">
      </path>
      <path fill="#3E416D"
          d="M41.209 185.593c-3.618.836-3.887 4.334-3.34 6.347.626 2.301 3.724 3.384 5.705 2.928 2.527-.58 4.214-3.348 3.757-5.672-.557-2.836-3.048-4.314-6.122-3.603">
      </path>
      <path fill="#BC6633"
          d="M34.043 226.601c-6.4-4.185-13.436-14.075-13.436-14.075s-.403.983-.728 2.472c5.56 10.267 20.503 15.747 14.164 11.603M32.466 234.831c2.505.697 3.131.186.372-1.116-2.788-1.315-9.439-5.789-11.317-8.649 0 0-.082 1.537.133 3.441 3.705 3.67 8.607 5.71 10.812 6.324M35.805 241.712c-1.948-.465-4.962-1.906-6.354-2.744 0 0 .002.709.225 1.841 2.013.795 3.69 1.196 4.784 1.368 1.484.233 3.293 0 1.345-.465">
      </path>
  </g>
</svg>
