<svg viewBox="0 0 150 48" version="1.1"
  xmlns="http://www.w3.org/2000/svg" xmlns:xlink="http://www.w3.org/1999/xlink">
  <title>get it on google play</title>
  <desc>Created with Sketch.</desc>
  <defs>
      <linearGradient x1="61.13659%" y1="4.6768%" x2="26.3783174%" y2="71.8064%"
          id="linearGradient-1">
          <stop stop-color="#00A1FF" offset="0%"></stop>
          <stop stop-color="#00BEFF" offset="26.01%"></stop>
          <stop stop-color="#00D2FF" offset="51.22%"></stop>
          <stop stop-color="#00DFFF" offset="76.04%"></stop>
          <stop stop-color="#00E3FF" offset="100%"></stop>
      </linearGradient>
      <linearGradient x1="107.99803%" y1="49.5345238%" x2="-130.395074%" y2="49.5345238%"
          id="linearGradient-2">
          <stop stop-color="#FFE000" offset="0%"></stop>
          <stop stop-color="#FFBD00" offset="40.87%"></stop>
          <stop stop-color="#FFA500" offset="77.54%"></stop>
          <stop stop-color="#FF9C00" offset="100%"></stop>
      </linearGradient>
      <linearGradient x1="86.4722892%" y1="30.8764094%" x2="-50.6259036%" y2="136.035847%"
          id="linearGradient-3">
          <stop stop-color="#FF3A44" offset="0%"></stop>
          <stop stop-color="#C31162" offset="100%"></stop>
      </linearGradient>
      <linearGradient x1="-19.1283133%" y1="-11.2584226%" x2="42.0921687%" y2="35.1999081%"
          id="linearGradient-4">
          <stop stop-color="#32A071" offset="0%"></stop>
          <stop stop-color="#2DA771" offset="6.85%"></stop>
          <stop stop-color="#15CF74" offset="47.62%"></stop>
          <stop stop-color="#06E775" offset="80.09%"></stop>
          <stop stop-color="#00F076" offset="100%"></stop>
      </linearGradient>
  </defs>
  <g id="Page-1" stroke="none" stroke-width="1" fill="none" fill-rule="evenodd">
      <g id="new-landing-page-v01" transform="translate(-366.000000, -493.000000)">
          <g id="get-it-on-google-play" transform="translate(366.000000, 493.000000)">
              <rect id="bg-200x60" fill="#3E416D" x="0" y="0" width="150" height="48" rx="24">
              </rect>
              <g id="google-play" transform="translate(48.100251, 21.333333)" fill="#FFFFFF">
                  <path
                      d="M66.633584,13.5 L68.5042607,13.5 L68.5042607,0.999 L66.633584,0.999 L66.633584,13.5 Z M83.4827068,5.502 L81.3373434,10.922 L81.273183,10.922 L79.0486216,5.502 L77.0325815,5.502 L80.3699248,13.077 L78.4681704,17.291 L80.4190476,17.291 L85.5619048,5.502 L83.4827068,5.502 Z M72.873183,12.08 C72.2606516,12.08 71.4055138,11.775 71.4055138,11.018 C71.4055138,10.054 72.4701754,9.684 73.3894737,9.684 C74.2115288,9.684 74.5984962,9.861 75.0977444,10.102 C74.9533835,11.26 73.9528822,12.08 72.873183,12.08 L72.873183,12.08 Z M73.0987469,5.229 C71.7443609,5.229 70.3418546,5.824 69.7614035,7.143 L71.4215539,7.834 C71.7764411,7.143 72.4380952,6.917 73.1308271,6.917 C74.0982456,6.917 75.0817043,7.496 75.0977444,8.526 L75.0977444,8.654 C74.7588972,8.461 74.0340852,8.172 73.1468672,8.172 C71.3573935,8.172 69.5358396,9.153 69.5358396,10.986 C69.5358396,12.659 71.0025063,13.737 72.647619,13.737 C73.9047619,13.737 74.5984962,13.174 75.033584,12.514 L75.0977444,12.514 L75.0977444,13.479 L76.9042607,13.479 L76.9042607,8.686 C76.9042607,6.467 75.2431078,5.229 73.0987469,5.229 L73.0987469,5.229 Z M61.5378446,7.024 L58.8781955,7.024 L58.8781955,2.739 L61.5378446,2.739 C62.9363409,2.739 63.7313283,3.894 63.7313283,4.881 C63.7313283,5.85 62.9363409,7.024 61.5378446,7.024 L61.5378446,7.024 Z M61.4897243,0.999 L57.0075188,0.999 L57.0075188,13.5 L58.8781955,13.5 L58.8781955,8.764 L61.4897243,8.764 C63.5629073,8.764 65.6010025,7.266 65.6010025,4.881 C65.6010025,2.496 63.5629073,0.999 61.4897243,0.999 L61.4897243,0.999 Z M37.047619,12.082 C35.7553885,12.082 34.6736842,11.003 34.6736842,9.521 C34.6736842,8.023 35.7553885,6.927 37.047619,6.927 C38.3238095,6.927 39.3253133,8.023 39.3253133,9.521 C39.3253133,11.003 38.3238095,12.082 37.047619,12.082 L37.047619,12.082 Z M39.19599,6.202 L39.1308271,6.202 C38.7107769,5.703 37.9037594,5.252 36.8862155,5.252 C34.7538847,5.252 32.8,7.12 32.8,9.521 C32.8,11.905 34.7538847,13.758 36.8862155,13.758 C37.9037594,13.758 38.7107769,13.307 39.1308271,12.791 L39.19599,12.791 L39.19599,13.404 C39.19599,15.031 38.3238095,15.901 36.9182957,15.901 C35.7714286,15.901 35.0606516,15.079 34.7709273,14.386 L33.1388471,15.063 C33.6070175,16.191 34.8511278,17.576 36.9182957,17.576 C39.114787,17.576 40.9724311,16.287 40.9724311,13.146 L40.9724311,5.509 L39.19599,5.509 L39.19599,6.202 Z M42.2646617,13.5 L44.1383459,13.5 L44.1383459,0.998 L42.2646617,0.998 L42.2646617,13.5 Z M46.9002506,9.376 C46.8511278,7.733 48.1754386,6.895 49.1288221,6.895 C49.8716792,6.895 50.5012531,7.265 50.7117794,7.797 L46.9002506,9.376 Z M52.7137845,7.958 C52.3588972,7.008 51.2761905,5.252 49.0636591,5.252 C46.8671679,5.252 45.0426065,6.975 45.0426065,9.505 C45.0426065,11.889 46.8511278,13.758 49.2741855,13.758 C51.2280702,13.758 52.3588972,12.566 52.8270677,11.873 L51.3734336,10.906 C50.8892231,11.615 50.2265664,12.082 49.2741855,12.082 C48.320802,12.082 47.6421053,11.647 47.2070175,10.794 L52.9082707,8.441 L52.7137845,7.958 Z M7.29223058,6.557 L7.29223058,8.361 L11.6210526,8.361 C11.4917293,9.376 11.1518797,10.117 10.635589,10.632 C10.0050125,11.261 9.02055138,11.954 7.29223058,11.954 C4.62756892,11.954 2.5443609,9.811 2.5443609,7.153 C2.5443609,4.494 4.62756892,2.352 7.29223058,2.352 C8.72982456,2.352 9.77944862,2.916 10.554386,3.641 L11.8305764,2.368 C10.7488722,1.337 9.3112782,0.547 7.29223058,0.547 C3.64210526,0.547 0.573433584,3.512 0.573433584,7.153 C0.573433584,10.794 3.64210526,13.758 7.29223058,13.758 C9.26215539,13.758 10.7488722,13.113 11.9117794,11.905 C13.1067669,10.713 13.4776942,9.038 13.4776942,7.684 C13.4776942,7.265 13.445614,6.879 13.3814536,6.557 L7.29223058,6.557 Z M18.3989975,12.082 C17.1067669,12.082 15.9919799,11.019 15.9919799,9.505 C15.9919799,7.974 17.1067669,6.927 18.3989975,6.927 C19.6912281,6.927 20.8050125,7.974 20.8050125,9.505 C20.8050125,11.019 19.6912281,12.082 18.3989975,12.082 L18.3989975,12.082 Z M18.3989975,5.252 C16.0411028,5.252 14.1182957,7.04 14.1182957,9.505 C14.1182957,11.954 16.0411028,13.758 18.3989975,13.758 C20.7568922,13.758 22.6786967,11.954 22.6786967,9.505 C22.6786967,7.04 20.7568922,5.252 18.3989975,5.252 L18.3989975,5.252 Z M27.7353383,12.082 C26.4431078,12.082 25.3293233,11.019 25.3293233,9.505 C25.3293233,7.974 26.4431078,6.927 27.7353383,6.927 C29.0275689,6.927 30.1413534,7.974 30.1413534,9.505 C30.1413534,11.019 29.0275689,12.082 27.7353383,12.082 L27.7353383,12.082 Z M27.7353383,5.252 C25.3774436,5.252 23.4556391,7.04 23.4556391,9.505 C23.4556391,11.954 25.3774436,13.758 27.7353383,13.758 C30.0932331,13.758 32.0150376,11.954 32.0150376,9.505 C32.0150376,7.04 30.0932331,5.252 27.7353383,5.252 L27.7353383,5.252 Z"
                      id="Shape"></path>
              </g>
              <g id="get-it-on" transform="translate(48.666667, 11.333333)" fill="#FFFFFF">
                  <polygon id="Shape"
                      points="38.7023311 0.138357845 38.7023311 3.86238595 38.7257082 4.7320815 35.8960689 0.138357845 34.7851508 0.138357845 34.7851508 6.52711663 35.7700361 6.52711663 35.7700361 2.57020796 35.746659 1.70154286 38.7135115 6.52711663 39.6892492 6.52711663 39.6892492 0.138357845">
                  </polygon>
                  <path
                      d="M32.8849016,3.33284028 C32.8849016,4.02014707 32.666377,4.59307447 32.2354262,5.03513536 C31.8065082,5.47616581 31.273918,5.69977237 30.6518852,5.69977237 C30.0298525,5.69977237 29.4972623,5.47616581 29.0673279,5.03513536 C28.6373934,4.59307447 28.4188689,4.02014707 28.4188689,3.33284028 C28.4188689,2.64553349 28.6373934,2.07260609 29.0673279,1.6305452 C29.4972623,1.18951475 30.0298525,0.966938642 30.6518852,0.966938642 C31.273918,0.966938642 31.8065082,1.18951475 32.2354262,1.6305452 C32.666377,2.07260609 32.8849016,2.64553349 32.8849016,3.33284028 M30.6518852,0.000381264637 C29.7350984,0.000381264637 28.9595902,0.326001874 28.3436557,0.968999532 C27.7287377,1.6099363 27.4167049,2.40440937 27.4167049,3.33284028 C27.4167049,4.26127119 27.7287377,5.05677471 28.3436557,5.69668103 C28.9585738,6.33967869 29.7350984,6.66426885 30.6518852,6.66426885 C31.5676557,6.66426885 32.3451967,6.33967869 32.9601148,5.69668103 C33.5760492,5.05574426 33.8870656,4.26024075 33.8870656,3.33284028 C33.8870656,2.41059204 33.5750328,1.61714941 32.9560492,0.972090867 C32.3370656,0.327032319 31.5615574,0.000381264637 30.6518852,0.000381264637"
                      id="Shape"></path>
                  <polygon id="Shape"
                      points="20.6623639 1.1044 22.3658393 1.1044 22.3658393 6.52660141 23.351741 6.52660141 23.351741 1.1044 25.0552164 1.1044 25.0552164 0.138873068 20.6623639 0.138873068">
                  </polygon>
                  <polygon id="Shape"
                      points="18.8906885 6.52660141 19.8776066 6.52660141 19.8776066 0.137842623 18.8906885 0.137842623">
                  </polygon>
                  <polygon id="Shape"
                      points="11.6676885 1.1044 13.3711639 1.1044 13.3711639 6.52660141 14.358082 6.52660141 14.358082 1.1044 16.0615574 1.1044 16.0615574 0.138873068 11.6676885 0.138873068">
                  </polygon>
                  <polygon id="Shape"
                      points="7.29048852 6.52680749 11.0541934 6.52680749 11.0541934 5.56128056 8.27740656 5.56128056 8.27740656 3.80746323 10.7818 3.80746323 10.7818 2.85842342 8.27740656 2.85842342 8.27740656 1.10460609 11.0541934 1.10460609 11.0541934 0.138048712 7.29048852 0.138048712">
                  </polygon>
                  <path
                      d="M6.30977049,3.01381452 L3.16809836,3.01381452 L3.16809836,3.96285433 L5.37163934,3.96285433 C5.31472131,4.41728056 5.15718033,4.77896674 4.90104918,5.03966932 C4.46806557,5.47760843 3.91921311,5.6991541 3.2697377,5.6991541 C2.65786885,5.6991541 2.12121311,5.47863888 1.67501639,5.04173021 C1.22881967,4.60585199 1.00318033,4.0308637 1.00318033,3.33325246 C1.00318033,2.63461077 1.22881967,2.05962248 1.67501639,1.62374426 C2.12121311,1.18786604 2.65786885,0.966320375 3.2697377,0.966320375 C3.95377049,0.966320375 4.47416393,1.19404871 4.86140984,1.66290117 L4.93357377,1.74945855 L5.61252459,1.05906042 L5.55357377,0.986929274 C5.30659016,0.689130679 4.97321311,0.446976112 4.56157377,0.267678689 C4.15298361,0.0904421546 3.71898361,-0.000237002342 3.2697377,-0.000237002342 C2.36616393,-0.000237002342 1.58659016,0.322292272 0.954393443,0.958076815 C0.321180328,1.59386136 0,2.39245621 0,3.33325246 C0,4.27301827 0.321180328,5.07161311 0.954393443,5.70739766 C1.58659016,6.34215176 2.36514754,6.66468103 3.2697377,6.66468103 C4.21396721,6.66468103 4.99252459,6.34627354 5.58203279,5.719763 C6.10445902,5.18908384 6.3697377,4.4708637 6.3697377,3.58365059 C6.3697377,3.42702295 6.3544918,3.2631822 6.32501639,3.09934145 L6.30977049,3.01381452 L6.30977049,3.01381452 Z"
                      id="Shape"></path>
              </g>
              <g id="logo" transform="translate(17.022556, 11.333333)">
                  <path
                      d="M0.464160401,0.3979 C0.172431078,0.7049 -3.6e-15,1.1829 -3.6e-15,1.8029 L-3.6e-15,1.8029 L-3.6e-15,23.9179 C-3.6e-15,24.5379 0.172431078,25.0149 0.464160401,25.3229 L0.464160401,25.3229 L0.537343358,25.3949 L12.958396,13.0069 L12.958396,12.8609 L12.958396,12.7139 L0.537343358,0.3249 L0.464160401,0.3979 Z"
                      id="Fill" fill="url(#linearGradient-1)"></path>
                  <path
                      d="M12.958396,12.7139 L12.958396,12.8609 L12.958396,13.0069 L17.0977444,17.1379 L17.1929825,17.0849 L22.0972431,14.3039 C23.4987469,13.5109 23.4987469,12.2109 22.0972431,11.4169 L22.0972431,11.4169 L17.1929825,8.6369 L17.0987469,8.5839 L12.958396,12.7139 Z"
                      id="Fill" fill="url(#linearGradient-2)"></path>
                  <path
                      d="M0.464160401,25.3229 C0.925313283,25.8109 1.68822055,25.8709 2.54736842,25.3849 L17.1929825,17.0849 L12.958396,12.8609 L0.464160401,25.3229 Z"
                      id="Fill" fill="url(#linearGradient-3)"></path>
                  <path
                      d="M0.464160401,0.3979 L12.958396,12.8609 L17.1929825,8.6359 L2.54736842,0.3359 C2.1443609,0.1079 1.76240602,-0.0001 1.4235589,-0.0001 L1.4235589,-0.0001 C1.039599,-0.0001 0.70877193,0.1389 0.464160401,0.3979"
                      id="Fill" fill="url(#linearGradient-4)"></path>
              </g>
          </g>
      </g>
  </g>
</svg>
