 <svg version="1.1" id="Layer_1" xmlns="http://www.w3.org/2000/svg"
  xmlns:xlink="http://www.w3.org/1999/xlink" x="0px" y="0px" width="100%" height="100%"
  viewBox="0 0 72 72" styles="enable-background:new 0 0 72 72;" xml:space="preserve">
  <g>
      <path fill="#D9E8FB"
          d="M17.78,0h36.44C64.04,0,72,7.96,72,17.78v36.44C72,64.04,64.04,72,54.22,72H17.78C7.96,72,0,64.04,0,54.22 V17.78C0,7.96,7.96,0,17.78,0z">
      </path>
      <g opacity="0.8">
          <path fill="#BFDAF9"
              d="M54.22,1C63.47,1,71,8.53,71,17.78v36.44C71,63.47,63.47,71,54.22,71H17.78C8.53,71,1,63.47,1,54.22V17.78 C1,8.53,8.53,1,17.78,1H54.22 M54.22,0H17.78C7.96,0,0,7.96,0,17.78v36.44C0,64.04,7.96,72,17.78,72h36.44 C64.04,72,72,64.04,72,54.22V17.78C72,7.96,64.04,0,54.22,0L54.22,0z">
          </path>
      </g>
  </g>
  <g id="Group-14" transform="translate(4.359375, 4.359375)">
      <path id="Fill-2" fill-rule="evenodd" clip-rule="evenodd" fill="#BFDAF9"
          d="M0,27.26c0,5.02,0.46,11.28,1.35,14.07c1.39,4.28,2.84,7.26,6.55,8.72 c4.73,1.86,15.18,1.34,23.74,1.28c8.56,0.06,19.01,0.58,23.74-1.28c3.71-1.46,5.16-4.44,6.55-8.72c0.89-2.79,1.35-9.05,1.35-14.07 H0z">
      </path>
      <path id="Fill-4" fill-rule="evenodd" clip-rule="evenodd" fill="#3E416D"
          d="M42.08,56.27c-0.76,2-2.23,3.76-4.07,4.98c-1.85,1.22-4.12,1.89-6.34,1.89 c-2.25,0-4.49-0.65-6.34-1.89c-1.85-1.22-3.32-2.98-4.07-4.98c-0.38-1.03,0.13-2.16,1.16-2.56c0.76-0.29,1.6-0.06,2.12,0.48 l0.1,0.1c1.01,1.05,2.12,1.87,3.3,2.39c1.2,0.55,2.46,0.82,3.74,0.82c1.28,0,2.54-0.27,3.74-0.82c1.2-0.55,2.29-1.37,3.3-2.39 l0.1-0.1c0.76-0.8,2.02-0.82,2.81-0.04C42.18,54.72,42.33,55.56,42.08,56.27">
      </path>
      <path id="Fill-6" fill-rule="evenodd" clip-rule="evenodd" fill="#4D4D87"
          d="M0,24.61c0,5.02,0.46,11.28,1.35,14.07c1.39,4.28,3.23,6.07,6.94,7.53 c4.73,1.86,14.79,3.06,23.35,3.01c8.56,0.06,18.64-1.16,23.35-3.01c3.71-1.46,5.53-3.23,6.94-7.53c0.91-2.79,1.35-9.05,1.35-14.07 s-0.46-11.28-1.35-14.07c-1.39-4.28-3.23-6.07-6.94-7.53C50.26,1.15,40.2-0.05,31.64,0C23.08-0.05,13,1.15,8.29,3.01 c-3.71,1.46-5.53,3.23-6.94,7.53C0.44,13.33,0,19.59,0,24.61">
      </path>
      <path id="Fill-8" fill-rule="evenodd" clip-rule="evenodd" fill="#4D4D87"
          d="M38,58.43c-1.85,1.22-4.12,1.89-6.34,1.89c-2.25,0-4.49-0.65-6.34-1.89 c-1.59-1.05-2.9-2.5-3.72-4.16c-0.46,0.53-0.61,1.29-0.35,2c0.76,2,2.23,3.76,4.07,4.98c1.85,1.24,4.1,1.89,6.34,1.89 c2.23,0,4.49-0.67,6.34-1.89c1.85-1.22,3.32-2.98,4.07-4.98c0.23-0.67,0.12-1.44-0.35-2C40.91,55.93,39.6,57.38,38,58.43">
      </path>
      <path id="Fill-10" fill-rule="evenodd" clip-rule="evenodd" fill="#49E7D9"
          d="M19.27,33.05L19.27,33.05c-2.95,0-5.34-2.39-5.34-5.34v-6.19c0-2.95,2.39-5.34,5.34-5.34 s5.34,2.39,5.34,5.34v6.19C24.61,30.65,22.22,33.05,19.27,33.05">
      </path>
      <path id="Fill-12" fill-rule="evenodd" clip-rule="evenodd" fill="#49E7D9"
          d="M44.02,33.05L44.02,33.05c-2.95,0-5.34-2.39-5.34-5.34v-6.19c0-2.95,2.39-5.34,5.34-5.34 s5.34,2.39,5.34,5.34v6.19C49.36,30.65,46.97,33.05,44.02,33.05">
      </path>
    </g>
</svg>
