<svg xmlns="http://www.w3.org/2000/svg" width="325" height="280" viewBox="0 0 325 280">
    <g fill="none" fill-rule="evenodd">
        <circle cx="166.12" cy="140" r="140" fill="#F0F5FD"/>
        <path fill="#4D4D87" d="M31.26 69.81c-7.43 0-9.34 3.3-9.07 8.25 3 56.82 3.36 112.51 3.36 112.51l173-5.27s-.83-61.15 0-101.74c.12-6-1.1-9.07-8-9.49-22.82-1.37-128.33-4.4-159.29-4.26z"/>
        <path fill="#F8F9FE" d="M29.47 80.74c.54 16.37 2.9 80.74 2.15 103.51l161.94-3.33s-2.32-68.86-2.16-94.2c0-1.12 0-2.8-3.4-3.12-19.92-1.85-91.59-5.09-156.8-6.31-1.72-.03-1.8 1.39-1.73 3.45z"/>
        <path fill="#BFDAF9" d="M13.72 182.17c0 1.67.12 4.06.27 5.23.37 2.75 3 4.3 6.17 4.3 8.82 0 174.32-4.7 182.9-4.7 8.58 0 10.29-1.9 10.29-5.34 0-1.41-.08-2.82-.24-4.22-.13-1-1-1.61-2.5-1.56-18.75.62-149.24 4.87-195 4.47-1.47-.01-1.91.79-1.89 1.82z"/>
        <path fill="#96BCEF" d="M104.31 184.07c5.48.17 29.36 0 35-1.2a4.49 4.49 0 0 0 3.81-4.92c-14 .4-29 .8-43.86 1.16.31 1.89 1.32 4.89 5.05 4.96z"/>
        <path fill="#D9E8FB" d="M40.33 127.42c0 1.61.2 3.75.22 5a1.37 1.37 0 0 0 1.36 1.35l53.56-.26a1.86 1.86 0 0 0 1.81-2.3s-.11-2.2-.3-3.45c-.15-1-.58-1.51-1.25-1.53-12.62-.56-54.11-.09-54.11-.09a1.28 1.28 0 0 0-1.29 1.28zM40.83 138.48v2.62c0 .52.13.93.93.93h36.77a.93.93 0 0 0 .93-.86l.08-1.1c0-.53-.33-1.51-.87-1.52l-37.24-.65c-.43 0-.6.15-.6.58zM41.26 145.32c0 .77 0 1.43-.06 1.91s.14.7.68.7h23.47a.59.59 0 0 0 .59-.67l-.19-1.51a.61.61 0 0 0-.58-.52l-23.44-.52c-.45 0-.47.29-.47.61zM40.83 155.83a38.66 38.66 0 0 0-.07 6.78.92.92 0 0 0 .9.91l26.14.2a.9.9 0 0 0 .9-1l-.36-5.91a.9.9 0 0 0-.88-.84l-25.34-1.1c-.84.02-1.22.13-1.29.96zM155 104.47c.05 1.18.2 2.88.3 4.69 0 .88.53 1.17 1.42 1.18l25 .14a1.62 1.62 0 0 0 1.64-1.66s-.1-4-.12-5.24c0-.9-.35-1.59-1.25-1.54-6.45.38-10.57.67-25.81.82-.84.01-1.18.71-1.18 1.61zM40.05 106.65c-.65 3.83 3.27 5.67 6.09 5.84 2.82.17 5.4-1.78 6.09-5.38.69-3.6-1.81-5.48-4.75-6.16-2.94-.68-6.79 1.93-7.43 5.7z"/>
        <path fill="#BFDAF9" d="M191.4 86.72c0-1.12 0-2.8-3.4-3.12-19.92-1.85-91.59-5.09-156.8-6.31-1.72 0-1.8 1.39-1.73 3.45.05 1.48.11 3.36.19 5.56 13.12.09 123 .89 161.74 4.22a240.4 240.4 0 0 1 0-3.8z"/>
        <path fill="#D9E8FB" d="M191.39 90c-22.86-2-89.27-3.17-92.84-3.33-3.57-.16-3.24-4.38-6.17-4.54-2.93-.16-23.85-.81-27.26-.65-3.41.16-4.06 4.3-6.81 4.46-2.75.16-28.65-.15-28.65-.15V86c.06 2 .14 4.35.23 6.91 51.63.32 151.79 1.64 161.54 1.77-.03-1.68-.03-3.2-.04-4.68zM108.6 119.52l1.13 41.48c0 1.31.75 2.37 2.84 2.36l70.59-1.36a1.45 1.45 0 0 0 1.42-1.51l-1-42.06c0-1.24-.15-2.2-2.1-2.2L110 118a1.46 1.46 0 0 0-1.4 1.52zM170.72 173.16c5.36 10.05 22.52 40.25 50 49.12 2 .63 2.87 1.63 1.45 3.12-8.38 8.76-20.46 22.26-27.81 31.93a3.05 3.05 0 0 1-3.57.82c-15.33-4.94-50.78-20.38-59.27-47.37-.21-.66-.47-1.72.85-3.45 9.5-12.5 22.73-25 33.82-34.77 1.81-1.56 3.37-1.56 4.53.6z"/>
        <path fill="#32B964" d="M153 205c-1.75 1.75-1.12 5.25 1.63 2.87s13.87-13.75 15.25-16c1.38-2.25 0-3.62-2.25-1.87s-12.74 13.16-14.63 15zM160 216.46c-1.13 1.29.06 4.09 2.14 2.26a179.62 179.62 0 0 0 14.5-16c1.67-2.3-.41-4.15-2.19-1.95-4.45 5.5-12.16 13.02-14.45 15.69z"/>
        <path fill="#96BCEF" d="M168.4 233.59c.79-3-6.18-6.76-7-2.37-.82 4.39 6.08 5.91 7 2.37zM179.94 240.41c.19-1.45-1.81-3.87-3.95-4.13a3 3 0 0 0-3.57 3c.07 4.25 7.02 4.82 7.52 1.13zM169.31 225c-1.56 1.87.35 3.88 2 2.16 3.46-3.62 12.42-12.33 14.33-15.58 1.91-3.25.09-4-1.66-2S171.83 222 169.31 225zM181.22 232.21c-1.55 1.7.06 3.37 1.93 1.75 1.87-1.62 10.92-11.16 13.15-14.55 1.81-2.75-1-3.95-2.71-1.58-2.23 3.03-9.25 10.94-12.37 14.38z"/>
        <path fill="#32B964" d="M146.42 205.56c-.42.12-.64.28-.59.72.66 5.13 1 9.74 1 9.74a19.68 19.68 0 0 1-3.78-.56c-.53-.13-.41.54-.4 1.22.01.68 0 1.28.62 1.28h4.62c.43 0 .64-.14.69-.53.09-.73.44-10.66.44-11.16s-.22-.81-.56-.81a17.18 17.18 0 0 0-2.04.1zM155.51 215.11c.69-.12 1.58-.4 1.61.1.03.5.07 11.37.07 11.65a.64.64 0 0 1-.66.6c-.41 0-5.31-.13-5.88-.16-.57-.03-.68-.53-.68-1.37 0-.84 0-1.22.53-1.19.53.03 4.09.56 4.4.59.31.03.63-.09.5-.59s-1.35-8.22-1.4-8.78c-.05-.56.17-.6 1.51-.85z"/>
        <path fill="#3E416D" d="M18.44 227.44s-6.83 1.44-8.29-4.09C6.94 211.29 1 180.67.06 169c-.34-4.39.8-7.12 3.34-9l15.04 67.44z"/>
        <path fill="#3E416D" d="M93.59 151.83c2.87-.12 4 .83 4.44 3.86 2.3 15.91 7.59 43.87 9.58 55.24.58 3.32-.33 4.73-3.64 5.23-35.27 5.3-83.08 11.07-85.53 11.28-2.45.21-4.25-.22-5.19-3.94-4-15.82-10.35-52.85-11-59.26-.24-2.46 0-4.86 3.56-5.22 12.83-1.3 83.96-7.02 87.78-7.19z"/>
        <path fill="#4D4D87" d="M8.07 166.18c1 7 6 35.49 9.85 52.55.35 1.57 1.43 2 3 1.83 11.8-1.36 59.8-6.37 79.71-8.75.85-.1 1.54-.79 1.16-2.91-2-11.22-6.28-39.34-7.72-50.35-.21-1.61-1.16-1.88-2.86-1.72-11.46 1.06-55.54 4.59-80.84 7.21-1.92.2-2.48.9-2.3 2.14z"/>
        <path fill="#1E96FF" d="M20.63 170.45c-2.3.36-2 3.56 1 3.33 3-.23 15.86-1.84 18.39-2.18 2.53-.34 2.29-3.8-1-3.34-3.29.46-16.21 1.84-18.39 2.19z"/>
        <path fill="#9553F1" d="M34.84 176.65c-3.91.42-3.79 4.25.57 3.68 4.36-.57 28.5-3.1 30.68-3.33 2.18-.23 3.3-3.72-1-3.34-6.02.54-27.04 2.65-30.25 2.99zM35.87 185.14c-2.09.59-1.61 3.41 1.46 3.09 3.07-.32 22.67-2.69 24.66-3 1.99-.31 3.3-3.41-.46-3.09-3.76.32-23.13 2.29-25.66 3zM70.5 180.52c-2.7.44-2.76 3.52 1.14 3.22 3.9-.3 12.36-1.46 14.25-1.84 1.89-.38 3-3.68-.15-3.37-3.15.31-12.87 1.61-15.24 1.99zM38.44 193.54c-2.25.59-3.1 4 1.15 3.39 4.25-.61 17-2.52 19.53-3 2.53-.48 2.82-3.74-.63-3.62-3.45.12-16.95 2.43-20.05 3.23z"/>
        <path fill="#1E96FF" d="M45.29 203.44c3-.45 3-3.54-1.28-3.22-4.28.32-13.59 1.5-15.7 1.89-2.11.39-3.28 3.69.18 3.37 3.46-.32 14.18-1.65 16.8-2.04z"/>
        <path fill="#9553F1" d="M40 208c-3.91.42-3.79 4.25.57 3.68 4.36-.57 19.38-2.19 21.57-2.41 2.19-.22 3.29-3.72-1-3.34-6.02.55-17.91 1.75-21.14 2.07zM66.05 189.56c-2.29.36-2 3.56 1 3.33 3-.23 18.34-2.22 20.87-2.56 2.53-.34 2.3-3.8-1-3.34-3.3.46-18.68 2.23-20.87 2.57z"/>
        <path fill="#96BCEF" d="M119.19 66.2l3.1-1.64c.4-.13.823-.17 1.24-.12 24.27 1.54 71.54 3.17 96.79 3.68 1.74 0 1.77 1.48 1.73 2.53-.62 18.4-4.44 56.95-4.44 56.95a3 3 0 0 1-.91 1.94l-1.78 1.7-95.73-65.04z"/>
        <path fill="#FFAB00" d="M167.12 11.86l4.29-1.5s8 5.93 16.81 13.86c1.78 1.6 1.4 3.69.77 5.58-1.88 5.59-3.22 9.23-7.69 21.29a2.05 2.05 0 0 1-1.07 1.17l-5 2.28-8.11-42.68z"/>
        <path fill="#BFDAF9" d="M118.66 67.44s-.85 27.1-4.47 53.59a2.16 2.16 0 0 0 2 2.32l97.81 8.14a1.48 1.48 0 0 0 1.6-1.4s3.11-42.36 3.14-56.51a1.69 1.69 0 0 0-1.74-1.94s-72.87-3.94-97.3-5.52c-.7-.04-.99.43-1.04 1.32z"/>
        <path fill="#96BCEF" d="M169.49 72.8a3.1 3.1 0 0 1 3.06 3.34 3.21 3.21 0 0 1-3.5 2.82 2.8 2.8 0 0 1-2.87-3.13 3.21 3.21 0 0 1 3.31-3.03z"/>
        <path fill="#434280" d="M170.38 73a5.5 5.5 0 0 1-4.72-1 5.6 5.6 0 0 1-1.53-4.78c.23-3.44 3.65-4.36 5.67-4.61a2.27 2.27 0 0 0 2-2.06l.53-6.4c0-.33-4.71.23-4.67.56l.37 4.58c-1.93.29-7.63 1.71-7.74 8.28-.06 3.15.81 5.58 2.59 7.22a8.6 8.6 0 0 0 5.24 2.14 11.09 11.09 0 0 0 1.91 0 7.43 7.43 0 0 0 2.55-.71 3.1 3.1 0 0 0-2.2-3.22z"/>
        <path fill="#FFD630" d="M149.24 34.92c2.56 7.11 8.53 19.24 8.53 19.24a2.38 2.38 0 0 0 2.49 1.52c4.36-.12 15-1.14 15-1.14S178.92 45 183.71 32a5.12 5.12 0 0 0-1-5.1c-4.79-5-15.64-15-15.64-15s-9 8.41-16.44 15.81a6.38 6.38 0 0 0-1.39 7.21z"/>
        <path fill="#F8F9FE" d="M168.2 91.1l42.16 3.43a1.28 1.28 0 0 0 1.32-1.7c-4.53-12.75-12.86-12.93-17.18-6.64 0 0-9.6-17.54-18.72-1.08 0 0-11.78-3.65-7.58 5.99z"/>
        <path fill="#96BCEF" d="M116.23 123.35l97.77 8.14a1.48 1.48 0 0 0 1.6-1.4s.39-5.3.9-12.78c-2.76-2.74-10.78-10.76-12.62-12.52-2.23-2.13-3.72-1.12-4.82-.18-1.65 1.4-4.06 3.07-4.06 3.07s-9.92-10-14.41-14.67c-3-3.15-4.16-3.24-8.45 1-8.28 8.22-20.25 16.61-20.25 16.61a124.16 124.16 0 0 0-10.19-9.46c-1.41-1.16-2.9-2.78-4.66-1.45-1.76 1.33-18.71 14.06-22.2 16.61-.19 1.56-.4 3.13-.61 4.69a2.16 2.16 0 0 0 2 2.34z"/>
        <path fill="#F8F9FE" d="M135.63 82.43c-2.09 5.58 4.45 11.26 11 8s7-8.69 2.1-12.62c-5.73-4.62-11.25-.33-13.1 4.62z"/>
        <path fill="#434280" d="M168.3 11.44s1.46.94 2.4.37c.41-.25.36-.88.37-2.85 0-2.24.09-5.61.17-8.86-1.33 0-2.66-.08-4-.09v11.8l1.06-.37z"/>
        <circle cx="275" cy="179.45" r="50" fill="#D9E8FB"/>
        <path fill="#BFDAF9" d="M316.65 162l2.44-6.16c-10.414-19.471-32.366-29.806-54.008-25.426-21.643 4.38-37.85 22.438-39.872 44.426 31.61.68 41 20.51 62.72 20.51 15.8 0 25.49-23.55 28.72-33.35z"/>
        <path fill="#BFDAF9" d="M275 129.45a49.74 49.74 0 0 0-24.9 6.63c19.924-8.9 43.35-3.08 56.791 14.111 13.442 17.19 13.442 41.328 0 58.518-13.442 17.19-36.867 23.01-56.791 14.111 18.216 10.45 41.02 8.404 57.085-5.123 16.065-13.526 21.965-35.65 14.769-55.379-7.196-19.73-25.953-32.86-46.954-32.868z"/>
        <path fill="#4D4D87" d="M255.44 106.48c-7.26-.47-13.37 2.87-17.78 8.33-6.26 7.77-15.47 26-16.54 35.84-.74 6.83 1.37 11.49 6.3 15.09 9.33 6.81 37.26 17.92 50 21.1 7.6 1.9 16.17.81 21.26-5 7.21-8.17 15.49-24.37 18-38 1.63-8.75-.94-15.83-8.41-20.79-12.86-8.57-37.33-15.57-52.83-16.57z"/>
        <path fill="#3E416D" d="M295.73 177.8c5.4-7 14.28-24.54 16.27-35 1.35-7.06 1-14.87-3.69-19.75 7.47 5 10 12 8.41 20.79-2.55 13.66-10.83 29.86-18 38-5.09 5.77-13.66 6.86-21.26 5l-.59-.15c9.5.38 14.65-3.43 18.86-8.89z"/>
        <path fill="#49E7D9" d="M274.26 160.24a7.52 7.52 0 0 0 9.51-4.28l3.54-8.26c1.63-3.81-.05-7.91-3.74-9.16A7.88 7.88 0 0 0 274 143l-3.44 8a6.94 6.94 0 0 0 3.7 9.24zM245 149c3.24 1.39 6.76-.32 8.32-3.73l3.38-7.41c1.56-3.4.51-7.07-2.8-8.29a7.14 7.14 0 0 0-8.74 3.78l-3.29 7.17A6.26 6.26 0 0 0 245 149z"/>
        <path fill="#3E416D" d="M259.21 197.77c0 3.69-3.94 5.13-6.62 5.13-6.41 0-11.63-7.22-11.63-13.63 0-2.68.5-3.06 1.13-3.06 1.34 0 3.84 8.94 9.56 8.94 1.94 0 2.9-.59 4.53-.59a3 3 0 0 1 3.03 3.21z"/>
        <path fill="#4D4D87" d="M242.09 186.21c.23 0 .5.27.81.71.32 3.75 2.42 16.32 15.68 13.16-1.22 2-4 2.82-6 2.82-6.41 0-11.63-7.22-11.63-13.63.05-2.68.51-3.06 1.14-3.06z"/>
    </g>
</svg>
