<?xml version="1.0" encoding="UTF-8"?>
<svg width="172px" height="39px" viewBox="0 0 172 39" version="1.1" xmlns="http://www.w3.org/2000/svg" xmlns:xlink="http://www.w3.org/1999/xlink">
    <!-- Generator: Sketch 50 (54983) - http://www.bohemiancoding.com/sketch -->
    <title>mimo-logo</title>
    <desc>Created with Sketch.</desc>
    <defs></defs>
    <g id="Page-1" stroke="none" stroke-width="1" fill="none" fill-rule="evenodd">
        <g id="Artboard-3" transform="translate(-40.000000, -51.000000)" fill="#3E416D" fill-rule="nonzero">
            <g id="mimo-logo" transform="translate(40.000000, 51.000000)">
                <path d="M30.9713333,4.76666667 C27.5670404,4.8193433 24.4145531,6.57072513 22.5713333,9.43333333 C20.7275246,6.57135368 17.5754037,4.82017539 14.1713333,4.76666667 C11.4636332,4.78924456 8.88269103,5.91703706 7.02666667,7.88866667 L6.41066667,6.39533333 C6.124477,5.6933074 5.44211896,5.23409888 4.684,5.23333333 L2.26666667,5.23333333 C1.23573513,5.23333333 0.4,6.06906847 0.4,7.1 L0.4,36.0333333 C0.4,37.0642649 1.23573513,37.9 2.26666667,37.9 L6,37.9 C7.03093153,37.9 7.86666667,37.0642649 7.86666667,36.0333333 L7.86666667,17.0633333 C7.86666667,14.2306667 9.95266667,11.93 12.5333333,11.93 C15.114,11.93 17.2,14.2306667 17.2,17.0633333 L17.2,36.0333333 C17.2,37.0642649 18.0357351,37.9 19.0666667,37.9 L22.8,37.9 C23.8309315,37.9 24.6666667,37.0642649 24.6666667,36.0333333 L24.6666667,17.0633333 C24.6666667,14.2306667 26.7526667,11.93 29.3333333,11.93 C31.914,11.93 34,14.2306667 34,17.0633333 L34,36.0333333 C34,37.0642649 34.8357351,37.9 35.8666667,37.9 L39.6,37.9 C40.6309315,37.9 41.4666667,37.0642649 41.4666667,36.0333333 L41.4666667,16.4333333 C41.4666667,9.99333333 36.7673333,4.76666667 30.9713333,4.76666667 Z" id="Shape"></path>
                <path d="M76.9333333,30.4333333 L68.5333333,30.4333333 L68.5333333,2.43333333 C68.5333333,1.4024018 67.6975982,0.566666667 66.6666667,0.566666667 L52.6666667,0.566666667 C51.6357351,0.566666667 50.8,1.4024018 50.8,2.43333333 L50.8,6.16666667 C50.8,7.1975982 51.6357351,8.03333333 52.6666667,8.03333333 L61.0666667,8.03333333 L61.0666667,30.4333333 L52.6666667,30.4333333 C51.6357351,30.4333333 50.8,31.2690685 50.8,32.3 L50.8,36.0333333 C50.8,37.0642649 51.6357351,37.9 52.6666667,37.9 L76.9333333,37.9 C77.9642649,37.9 78.8,37.0642649 78.8,36.0333333 L78.8,32.3 C78.8,31.2690685 77.9642649,30.4333333 76.9333333,30.4333333 Z" id="Shape"></path>
                <path d="M118.704667,4.76666667 C115.300374,4.8193433 112.147886,6.57072513 110.304667,9.43333333 C108.460858,6.57135368 105.308737,4.82017539 101.904667,4.76666667 C99.1976619,4.78803056 96.6168235,5.91409197 94.76,7.884 L94.144,6.39066667 C93.8563483,5.69047207 93.1743115,5.2333231 92.4173333,5.23333333 L90,5.23333333 C88.9690685,5.23333333 88.1333333,6.06906847 88.1333333,7.1 L88.1333333,36.0333333 C88.1333333,37.0642649 88.9690685,37.9 90,37.9 L93.7333333,37.9 C94.7642649,37.9 95.6,37.0642649 95.6,36.0333333 L95.6,17.0633333 C95.6,14.2306667 97.686,11.93 100.266667,11.93 C102.847333,11.93 104.933333,14.2306667 104.933333,17.0633333 L104.933333,36.0333333 C104.933333,37.0642649 105.769068,37.9 106.8,37.9 L110.533333,37.9 C111.564265,37.9 112.4,37.0642649 112.4,36.0333333 L112.4,17.0633333 C112.4,14.2306667 114.486,11.93 117.066667,11.93 C119.647333,11.93 121.733333,14.2306667 121.733333,17.0633333 L121.733333,36.0333333 C121.733333,37.0642649 122.569068,37.9 123.6,37.9 L127.333333,37.9 C128.364265,37.9 129.2,37.0642649 129.2,36.0333333 L129.2,16.4333333 C129.2,9.99333333 124.500667,4.76666667 118.704667,4.76666667 Z" id="Shape"></path>
                <path d="M154.4,0.1 C145.118,0.1 137.6,5.73733333 137.6,19.2333333 C137.6,32.7293333 145.118,38.3666667 154.4,38.3666667 C163.682,38.3666667 171.2,32.7293333 171.2,19.2333333 C171.2,5.73733333 163.682,0.1 154.4,0.1 Z M145.127333,19.2333333 C145.127333,10.9873333 149.280667,7.1 154.404667,7.1 C156.421472,7.06724536 158.382724,7.76130324 159.93,9.05533333 L145.566,23.522 C145.261241,22.1131272 145.114114,20.6747306 145.127333,19.2333333 Z M154.4,31.3666667 C152.381597,31.4005473 150.418497,30.7064217 148.87,29.4113333 L163.234,14.9446667 C163.539067,16.3472517 163.687753,17.7793262 163.677333,19.2146667 C163.682,27.4793333 159.533333,31.3666667 154.4,31.3666667 Z" id="Shape"></path>
            </g>
        </g>
    </g>
</svg>