<svg width="24" height="24" viewBox="0 0 24 24" fill="none" xmlns="http://www.w3.org/2000/svg">
<g id="icon/code-language/python/24px">
<path id="Fill 1" fill-rule="evenodd" clip-rule="evenodd" d="M8.38476 4.41989V4.41789C8.38376 3.93489 8.77376 3.54289 9.25476 3.54189H9.25576C9.73776 3.54189 10.1278 3.93389 10.1278 4.41689V4.41789C10.1278 4.90089 9.73876 5.29389 9.25776 5.29489H9.25576C8.77576 5.29489 8.38476 4.90289 8.38476 4.41989ZM11.9278 1.99989C6.85076 1.99989 7.16776 4.21289 7.16776 4.21289L7.17376 6.50689H12.0188V7.19489H5.24876C5.24876 7.19489 1.99976 6.82389 1.99976 11.9749C1.99976 17.1239 4.83576 16.9409 4.83576 16.9409H6.52876V14.5519C6.52876 14.5519 6.43676 11.7009 9.31876 11.7009H14.1238C14.1238 11.7009 16.8238 11.7449 16.8238 9.07789V4.66889C16.8238 4.66889 17.2348 1.99989 11.9278 1.99989Z" fill="#1E96FF"/>
<path id="Fill 3" fill-rule="evenodd" clip-rule="evenodd" d="M13.872 19.584C13.872 20.066 14.263 20.458 14.743 20.458H14.744H14.745C15.226 20.458 15.616 20.065 15.615 19.582V19.58C15.615 19.097 15.225 18.705 14.744 18.706H14.742C14.261 18.706 13.872 19.099 13.872 19.582V19.584ZM19.164 7.059C19.164 7.059 19.177 7.058 19.2 7.058C19.527 7.058 21.995 7.217 22 12.012V12.039C21.994 17.175 18.751 16.806 18.751 16.806H11.981V17.494H16.827L16.832 19.787C16.832 19.787 17.149 22 12.072 22C6.76605 22 7.17605 19.332 7.17605 19.332V14.922C7.17605 12.255 9.87605 12.299 9.87605 12.299H14.682C17.563 12.299 17.472 9.448 17.472 9.448V7.059H19.164Z" fill="#FFD011"/>
</g>
</svg>
