<svg width="440px" height="467px" viewBox="0 0 440 467" version="1.1" xmlns="http://www.w3.org/2000/svg" xmlns:xlink="http://www.w3.org/1999/xlink">
  <title>Group 2</title>
  <desc>Created with Sketch.</desc>
  <defs>
    <circle id="path-1" cx="220" cy="220" r="220">
    </circle>
    <polygon id="path-3" points="0.585740294 0.000485849174 143.445773 0.000485849174 143.445773 143.784426 0.585740294 143.784426"></polygon>
  </defs>
  <g id="Page-1" stroke="none" stroke-width="1" fill="none" fill-rule="evenodd">
    <g id="new-landing-page-v01" transform="translate(-300.000000, -1906.000000)">
      <g id="Group-2" transform="translate(300.000000, 1904.000000)">
        <g id="robot-hand" transform="translate(0.000000, 29.000000)">
          <mask id="mask-2" fill="white">
          <use xlink:href="#path-1"></use>
          </mask>
          <use id="Mask" fill="#F9FAFE" xlink:href="#path-1"></use>
        </g>
        <g id="Group-32" transform="translate(298.500000, 115.000000) rotate(-11.000000) translate(-298.500000, -115.000000) translate(200.000000, 18.000000)">
            <path d="M3.8876544,189.47755 C3.7304064,191.229051 5.3682048,192.77492 7.0955136,192.503969 C15.4490112,191.185505 39.8055168,187.66315 53.5393152,173.929352 C62.1177984,165.348449 67.8295296,150.714708 56.5584768,139.104968 C47.1284352,129.38946 34.1712,129.582996 23.7613824,139.990395 C9.5413248,154.210452 4.7343744,180.149115 3.8876544,189.47755" id="Fill-1" fill="#FFD011"></path>
            <path d="M56.4321946,138.971912 C62.3326234,144.87234 60.8448154,152.875054 53.8412314,159.271419 C44.6361754,167.6733 33.0385306,169.840904 27.7404826,170.39732 C26.1680026,170.564244 24.818089,169.299003 24.8955034,167.721684 C25.1640346,162.23252 26.7558682,149.964756 35.2424218,140.67019 C41.6363674,133.669025 50.5317658,133.071483 56.4321946,138.971912" id="Fill-3" fill="#FFE683"></path>
            <path d="M76.5582451,68.472553 C76.5582451,68.472553 37.6333171,65.6977306 13.7969395,89.5341082 C7.10543232,96.2256154 2.98311552,102.525212 0.76954752,106.461251 C-0.55375488,108.817551 -0.13765248,111.766556 1.77351552,113.677724 C3.70161792,115.605827 6.67965312,116.000156 9.04804992,114.645404 C16.1653363,110.564214 32.8191091,103.548534 55.2838003,110.169884 L76.5582451,68.472553 Z" id="Fill-5" fill="#F05A6E"></path>
            <path d="M76.5582451,68.472553 C76.5582451,68.472553 71.7561331,68.1314458 64.4961139,68.7193114 C55.2765427,79.8040858 46.4101747,93.9322138 41.5741939,107.624886 C45.8489203,107.946639 50.4284659,108.740137 55.2838003,110.169884 L76.5582451,68.472553 Z" id="Fill-7" fill="#D7465F"></path>
            <path d="M83.3646643,138.253651 C89.9860147,160.715923 82.9703347,177.369696 78.8891443,184.489402 C77.5343923,186.855379 77.9311411,189.833414 79.8592435,191.761517 C81.7704115,193.672685 84.7194163,194.091206 87.0732979,192.765485 C91.0093363,190.551917 97.3113523,186.4296 104.00044,179.738093 C127.839237,155.901715 125.064415,116.979206 125.064415,116.979206 L83.3646643,138.253651 Z" id="Fill-9" fill="#F05A6E"></path>
            <path d="M125.06514,116.979448 C125.06514,116.979448 125.406248,121.78156 124.815963,129.04158 C113.731188,138.258732 99.6054797,147.1251 85.9103885,151.9635 C85.5886349,147.688773 84.7951373,143.106808 83.3653901,138.253893 L125.06514,116.979448 Z" id="Fill-11" fill="#D7465F"></path>
            <g id="Group-15" transform="translate(52.531200, 0.000000)">
              <mask id="mask-4" fill="white">
                <use xlink:href="#path-3"></use>
              </mask>
              <g id="Clip-14"></g>
              <path d="M27.0038707,143.784426 C27.0038707,143.784426 56.8301875,141.616823 86.5742515,111.872759 C129.384415,69.0601766 140.55628,23.6469542 143.374648,6.28193664 C143.97461,2.58539904 140.732882,-0.58133376 137.046021,0.09120384 C118.45205,3.47808384 67.8278707,15.7410086 30.2818867,53.2869926 C-1.93943808,85.5083174 0.63459072,116.585361 0.63459072,116.585361 L27.0038707,143.784426 Z" id="Fill-13" fill="#D9E8FB" mask="url(#mask-4)"></path>
            </g>
            <path d="M53.1624038,116.584877 L79.534103,143.783942 C79.534103,143.783942 109.36042,141.616339 139.104484,111.872275 C109.979735,140.997024 85.7587046,134.90064 73.3119206,122.456275 C60.8675558,110.009491 53.6897894,82.4088384 82.8145382,53.2865088 C50.5932134,85.5078336 53.1624038,116.584877 53.1624038,116.584877" id="Fill-16" fill="#BFDAF9"></path>
            <path d="M81.3659213,141.955753 C83.0883917,143.849987 83.0762957,145.560361 79.4402381,148.985948 C75.8017613,152.409116 73.8131789,152.48895 71.3431757,149.849603 C68.8780109,147.210255 47.2842317,125.614057 45.3488717,123.506934 C43.4135117,121.399811 42.4627661,119.58783 46.4423501,115.816297 C50.4267725,112.049603 52.8822605,112.78262 54.9119693,114.834102 L81.3659213,141.955753 Z" id="Fill-18" fill="#96BCEF"></path>
            <path d="M152.273102,44.815614 C161.001342,56.7843112 158.205316,70.1617112 150.889263,77.3054696 C142.091444,85.8975011 123.668596,88.6172998 115.726336,74.7676943 C107.784075,60.9154507 112.700958,48.1210532 120.004127,41.9322581 C128.1912,34.9916272 143.44436,32.7097398 152.273102,44.815614" id="Fill-20" fill="#BFDAF9"></path>
            <path d="M147.19695,49.1828198 C153.498966,57.6258278 151.481353,67.0679654 146.19782,72.107159 C139.842582,78.1648358 126.539401,80.0856806 120.803478,70.3121126 C115.067555,60.5409638 118.616521,51.5149286 123.890377,47.1482726 C129.805321,42.254231 140.819939,40.6430438 147.19695,49.1828198" id="Fill-22" fill="#4D4D87"></path>
            <path d="M122.716823,69.6751373 C116.983319,59.9039885 120.532285,50.8755341 125.803722,46.5112973 C127.148797,45.3984653 128.759985,44.4573965 130.518743,43.7655053 C128.012452,44.4477197 125.709373,45.6403853 123.890135,47.1475469 C118.616279,51.5142029 115.067313,60.5426573 120.803236,70.3138061 C125.092477,77.6246285 133.622577,78.3915149 140.306826,75.7739405 C133.980618,77.5496333 126.606897,76.3037453 122.716823,69.6751373" id="Fill-24" fill="#3E416D"></path>
            <path d="M102.512632,93.151296 C104.00044,94.639104 94.6405555,114.63863 76.0272307,133.680154 L69.8558515,126.446746 L102.512632,93.151296 Z" id="Fill-26" fill="#BFDAF9"></path>
            <path d="M102.512632,93.151296 C99.1088179,89.7474816 70.7074099,117.086861 56.4534835,131.764147 C42.1971379,146.443853 39.8601907,151.763674 41.7737779,153.67968 C43.6897843,155.593267 48.9007411,153.570816 63.5804467,139.31689 C78.2601523,125.062963 105.916447,96.5551104 102.512632,93.151296" id="Fill-28" fill="#F05A6E"></path>
            <path d="M186.022207,41.1832512 C192.00005,26.0680896 194.709554,13.6454976 195.904639,6.2814528 C196.502181,2.5849152 193.262872,-0.5818176 189.578431,0.09072 C182.059557,1.4599872 169.305535,4.2807744 154.299237,9.6368832 C166.973426,17.7944256 177.799346,28.5574464 186.022207,41.1832512" id="Fill-30" fill="#F05A6E">
          </path>
        </g>
      </g>
    </g>
  </g>
</svg>
